<svg width="46" height="64" fill="none" xmlns="http://www.w3.org/2000/svg"><path stroke="#050505" stroke-width="3" d="M1.5 19.14h43v43h-43zm7.703-1.229S8.77 2 23 2c14.229 0 14.229 15.911 14.229 15.911"/><path d="M22.477 49.316c4.054 0 6.433-3.41 6.433-8.8 0-5.356-2.39-8.743-6.433-8.743-4.032 0-6.457 3.399-6.457 8.754 0 5.391 2.402 8.79 6.457 8.79zm0-2.203c-2.415 0-3.797-2.508-3.797-6.586 0-4.02 1.406-6.55 3.797-6.55 2.39 0 3.785 2.52 3.785 6.55 0 4.09-1.371 6.586-3.785 6.586z" fill="#0085FF"/></svg>