<svg width="43" height="44" fill="none" xmlns="http://www.w3.org/2000/svg"><path d="M21.513 43.051a.89.89 0 01-.414-.102L.002 31.82V11.211A.898.898 0 011.3 10.41l20.614 10.315a.898.898 0 01.495.802v20.628a.897.897 0 01-.895.897zM1.796 30.848l18.82 9.826V22.08l-18.82-9.418v18.186z" fill="#050505"/><path d="M21.489 43.124c-.162 0-.622-.361-.763-.447-.142-.086-.134-.136-.134-.45V21.598c0-.339.192-.65.495-.802l20.614-10.314c.275-.14.604 0 .978 0 .187.374.321.492.321.802V32.08L21.903 43.022a.89.89 0 01-.414.102zm.897-20.972v18.595l18.82-9.826V12.735l-18.82 9.418z" fill="#050505"/><path d="M.899 12.108a.897.897 0 01-.402-1.698L21.527 0l21.03 10.41c.442.222.155.565-.065 1.008-.223.443-.293.816-.738.597L21.542 1.9 1.3 12.013a.893.893 0 01-.402.095z" fill="#050505"/><path d="M32.368 26.233c-.99.461-.99.45-.99.45v-9.957L11.258 6.66a.896.896 0 01-.4-1.203.9.9 0 011.204-.402l20.615 10.314a.903.903 0 01.495.804v9.686l-.803.375z" fill="#050505"/></svg>