<svg width="23" height="20" fill="none" xmlns="http://www.w3.org/2000/svg"><path d="M11.167 20c-.862-.582.009-.006-.862-.582-.902-.784-1.772-1.52-2.54-2.17l-.004-.004c-2.25-1.904-4.193-3.55-5.545-5.17C.704 10.262 0 8.544 0 6.668c0-1.823.63-3.505 1.772-4.736C2.928.686 4.515 0 6.24 0c1.29 0 2.47.405 3.51 1.203.524.403 1 .897 1.419 1.472a7.156 7.156 0 011.419-1.472A5.643 5.643 0 0116.098 0c1.725 0 3.312.686 4.468 1.932 1.143 1.231 1.772 2.913 1.772 4.736 0 1.877-.704 3.594-2.216 5.406-1.352 1.62-3.295 3.265-5.545 5.17-.769.65-1.64 1.389-2.545 2.174-.863.582 0 0-.865.582zM6.24 1.3c-1.355 0-2.6.537-3.506 1.513-.92.99-1.426 2.36-1.426 3.855 0 1.578.59 2.99 1.915 4.577 1.28 1.534 3.183 3.145 5.387 5.01l.004.004c.77.652 1.644 1.392 2.553 2.181a303.65 303.65 0 012.561-2.185c2.204-1.866 4.107-3.476 5.387-5.01 1.324-1.587 1.914-2.999 1.914-4.577 0-1.496-.506-2.865-1.425-3.855A4.727 4.727 0 0016.098 1.3a4.36 4.36 0 00-2.71.931c-.717.552-1.407 1.178-1.7 1.665-.71.449 0 0-.52.52-.519-.52-.368-.27-.519-.52-.292-.487-.982-1.113-1.7-1.665A4.358 4.358 0 006.24 1.3z" fill="#050505"/></svg>