<svg width="43" height="39" fill="none" xmlns="http://www.w3.org/2000/svg"><path d="M21.496 38.5c-1.658-1.12.017-.011-1.658-1.12a497.159 497.159 0 00-4.89-4.178l-.007-.006c-4.332-3.667-8.073-6.834-10.676-9.953C1.355 19.755 0 16.448 0 12.835 0 9.326 1.212 6.09 3.411 3.72 5.637 1.32 8.691 0 12.012 0c2.482 0 4.756.78 6.756 2.317A13.771 13.771 0 0121.5 5.15a13.772 13.772 0 012.732-2.833C26.232.779 28.506 0 30.988 0c3.32 0 6.375 1.32 8.601 3.719C41.79 6.089 43 9.327 43 12.836c0 3.612-1.355 6.919-4.264 10.406-2.603 3.12-6.344 6.286-10.675 9.953a492.494 492.494 0 00-4.899 4.185c-1.662 1.12 0 0-1.666 1.12zM12.012 2.502c-2.609 0-5.006 1.034-6.75 2.913C3.494 7.32 2.52 9.957 2.52 12.836c0 3.038 1.136 5.755 3.685 8.81 2.463 2.953 6.128 6.054 10.37 9.646l.008.006a503.2 503.2 0 014.914 4.199 586.944 586.944 0 014.93-4.206c4.243-3.591 7.907-6.692 10.37-9.645 2.549-3.055 3.685-5.772 3.685-8.81 0-2.88-.974-5.515-2.744-7.421-1.743-1.879-4.14-2.913-6.75-2.913-1.91 0-3.665.604-5.215 1.794-1.38 1.06-2.708 2.265-3.272 3.204-1.366.864 0 0-1 1-1-1-.71-.517-1-1-.564-.939-1.891-2.143-3.272-3.204-1.55-1.19-3.305-1.794-5.216-1.794z" fill="#050505"/></svg>