<svg width="35" height="32" fill="none" xmlns="http://www.w3.org/2000/svg"><path d="M17.497 31.337c-1.35-.912.014-.009-1.35-.912a405.395 405.395 0 00-3.98-3.4l-.006-.005c-3.526-2.985-6.571-5.563-8.69-8.102C1.103 16.08 0 13.388 0 10.448c0-2.857.986-5.492 2.777-7.421C4.588 1.075 7.074 0 9.777 0c2.02 0 3.871.634 5.5 1.886A11.21 11.21 0 0117.5 4.192a11.211 11.211 0 012.224-2.306C21.352.634 23.202 0 25.223 0c2.703 0 5.189 1.075 7 3.027C34.015 4.956 35 7.59 35 10.448c0 2.94-1.103 5.632-3.471 8.47-2.119 2.54-5.163 5.117-8.689 8.101a400.84 400.84 0 00-3.987 3.407c-1.353.911 0 0-1.356.911zm-7.72-29.3c-2.123 0-4.074.841-5.493 2.37C2.844 5.96 2.05 8.104 2.05 10.448c0 2.473.925 4.684 3 7.17 2.005 2.404 4.987 4.929 8.44 7.852l.007.005c1.207 1.022 2.576 2.18 4 3.418 1.433-1.24 2.804-2.4 4.013-3.424 3.453-2.923 6.435-5.447 8.44-7.85 2.075-2.486 3-4.698 3-7.17 0-2.345-.793-4.49-2.234-6.042-1.419-1.529-3.37-2.37-5.493-2.37-1.556 0-2.984.49-4.245 1.46-1.124.863-2.205 1.844-2.664 2.608-1.112.703 0 0-.814.814-.814-.814-.578-.422-.814-.814-.459-.764-1.54-1.745-2.663-2.609-1.262-.968-2.69-1.46-4.245-1.46z" fill="#050505"/></svg>