<svg width="43" height="39" fill="none" xmlns="http://www.w3.org/2000/svg"><path d="M21.496 38.5c-1.658-1.12.017-.011-1.658-1.12a497.159 497.159 0 00-4.89-4.178l-.007-.006c-4.332-3.667-8.073-6.834-10.676-9.953C1.355 19.755 0 16.448 0 12.835 0 9.326 1.212 6.09 3.411 3.72 5.637 1.32 8.691 0 12.012 0c2.482 0 4.756.78 6.756 2.317A13.771 13.771 0 0121.5 5.15a13.772 13.772 0 012.732-2.833C26.232.779 28.506 0 30.988 0c3.32 0 6.375 1.32 8.601 3.719C41.79 6.089 43 9.327 43 12.836c0 3.612-1.355 6.919-4.264 10.406-2.603 3.12-6.344 6.286-10.675 9.953a492.494 492.494 0 00-4.899 4.185c-1.662 1.12 0 0-1.666 1.12zM18.77 11.847C16.159 11.847 20 14.5 20 14.5c-.162 0-.24-.155 0 0h-.162s-1.588-1.52.162 0c0 0-3.67-2.242-2.185-3.5 2.549-3.055-.166 2.97-.166-.069 1.77 1.907 0-2.879 0 0 0 0 1.128-1.19-.421 0 0 0 5.836-4.37 5.272-3.431-1.366.864-3.685 2.5-4.685 3.5C16 10.334 20.5 6.183 20.5 7.5c0 0-1.47 3.895-2.851 2.834-1.55-1.19 3.03 1.513 1.12 1.513z" fill="#050505"/></svg>