<svg width="20" height="25" fill="none" xmlns="http://www.w3.org/2000/svg"><path fill-rule="evenodd" clip-rule="evenodd" d="M14.91 16.117c1.834-2.822 2.957-5.415 2.957-7.43 0-4.032-3.653-7.298-8.157-7.298S1.554 4.655 1.554 8.686c0 2.012 1.178 4.709 3.047 7.591 1.491 2.301 3.334 4.588 5.093 6.534 1.857-2.091 3.728-4.405 5.215-6.694zm-4.204 7.787c4.238-4.739 8.714-10.771 8.714-15.218C19.42 3.89 15.073 0 9.71 0S0 3.889 0 8.686c0 4.424 4.632 10.778 8.696 15.23.343.375.682.738 1.014 1.084.33-.356.662-.722.996-1.096z" fill="#E2E2E2"/><path d="M13.206 9.722c0 1.534-1.391 2.778-3.107 2.778-1.717 0-3.108-1.244-3.108-2.778s1.391-2.778 3.107-2.778c1.716 0 3.108 1.244 3.108 2.778z" fill="#E2E2E2"/></svg>