<svg width="59" height="35" fill="none" xmlns="http://www.w3.org/2000/svg"><path d="M28.149 16.38c-.637 0-1.273.319-1.432 1.273h2.227c0-.636-.159-1.273-.795-1.273zm-15.267 2.545c-.478.477-.796 1.113-.16 1.273.478.159 1.432-.16 1.591-.796l.16-.636c-.319 0-.955-.318-1.591.159zm39.438-.795c-.158.794.319 1.59.796 1.59.636 0 1.113-.477 1.431-1.273.16-.477.16-1.272-.159-1.59-.477-.636-1.75-.159-2.067 1.272zm-9.7.795c-.477.477-.795 1.113-.159 1.273.477.159 1.432-.16 1.59-.796l.16-.636c-.318 0-.954-.318-1.59.159z" fill="#E2E2E2"/><path d="M41.507 0c-4.135 0-7.952 1.431-10.973 3.976 2.226 2.226 3.975 5.089 5.089 8.11H34.19c-.795-2.862-2.544-5.248-4.612-7.156-2.067 1.908-3.657 4.453-4.611 7.156h-1.432c.955-3.18 2.545-5.884 4.93-8.11C25.445 1.59 21.628 0 17.493 0 7.793 0 0 7.951 0 17.493c0 9.542 7.951 17.494 17.493 17.494 4.135 0 7.952-1.59 10.973-3.976a20.298 20.298 0 01-4.93-8.11h1.432c.795 2.703 2.544 5.247 4.611 7.156 2.068-1.909 3.658-4.453 4.612-7.157h1.432c-.954 3.18-2.704 5.884-5.09 8.11 3.022 2.545 6.839 3.976 10.974 3.976C51.048 34.986 59 27.035 59 17.494 59 7.951 51.208 0 41.507 0zM7.95 21.628l.955-5.407-2.386 5.407H4.77l-.317-5.725-1.113 5.725H1.59l1.59-7.792h2.863l.318 4.77 2.227-4.77h2.862l-1.431 7.792H7.95zm6.203 0l-.16-.318c-.317.159-.476.318-1.43.477-.796 0-2.068-.636-1.909-1.908.477-2.863 3.499-2.227 4.135-2.386.159-.954-.477-.795-1.113-.795-.637 0-1.75.16-2.227.16l.16-1.432c1.271-.16 1.748-.16 2.226-.16 3.021 0 2.544 2.068 2.544 3.022l-.477 3.34h-1.75zm6.997-1.908c-.318 1.908-2.386 1.908-2.863 1.908-.636 0-1.272 0-2.067-.159l.16-1.272c.794.318 2.066.159 2.226.159.477 0 .636-.795.159-.954-.319-.16-.796-.478-1.432-.796-.477-.159-.795-.636-.636-1.908.318-1.59 2.386-1.59 2.704-1.59.159 0 .795-.16 1.749.159l-.477 1.272c-.477-.159-1.272-.159-1.75-.159-.636.16-.477.795 0 .954.319.16.796.477 1.273.636.795.318 1.272.796.954 1.75zm3.18 1.59c-.477.159-.795.318-1.272.318s-1.749-.159-1.431-1.908l1.272-6.202h1.75l-.319 1.749h.955l-.318 1.431h-.796l-.477 2.545c-.159.477 0 .954.955.795l-.319 1.272zm3.817-1.272c.636 0 1.75-.16 1.909-.16l-.16 1.273c-.476.159-1.59.318-2.226.318-3.021 0-3.021-2.863-3.021-3.34.159-.477.477-3.34 3.34-3.34 3.02 0 2.544 2.545 2.385 3.658h-3.817c-.16 1.75.954 1.59 1.59 1.59zm4.612-1.273l-.477 3.022h-1.75l1.273-6.52h1.59v.636c.16-.318.795-.636 1.59-.636l-.477 1.59c-.318 0-1.113-.159-1.749 1.909zm6.68.796l.476 1.59c-.477.159-1.272.477-2.226.477-1.908 0-3.817-1.59-3.021-4.93.636-2.385 2.703-3.34 3.975-3.34 1.431 0 1.909.478 2.386.955l-1.273 1.272c-.318-.16-.477-.16-1.272-.16-.477 0-1.908.478-2.226 2.227.159 1.59 1.431 2.545 3.18 1.909zm4.452 2.067l-.159-.318c-.318.159-.477.318-1.431.477-.795 0-2.068-.636-1.908-1.908.477-2.704 3.657-2.227 4.134-2.227.16-.954-.477-.795-1.113-.795s-1.75.16-2.226.16l.159-1.432c1.272-.16 1.749-.16 2.226-.16 3.022 0 2.545 2.068 2.545 3.022l-.636 3.5-1.59-.319zm4.612-3.021l-.477 3.021h-1.75l1.273-6.52h1.59l.16.636c.317-.318.794-.636 1.59-.636l-.478 1.75c-.477 0-1.272-.16-1.908 1.748zm5.566 3.021l-.159-.477c-.318.159-.954.477-1.59.477-1.273 0-2.386-1.75-1.909-3.658.796-3.021 2.386-2.703 3.34-2.703.795 0 .954.477 1.431.795l.477-2.545h1.909l-1.59 8.27-1.909-.159z" fill="#E2E2E2"/></svg>