<svg width="23" height="26" fill="none" xmlns="http://www.w3.org/2000/svg"><path d="M5.508 13.702c1.214-1.294 3.676-2.066 6.361-2.066 2.684 0 5.159.771 6.392 2.07.614.647 1.176 1.704 1.664 3.026.481 1.303.86 2.774 1.15 4.171a51.04 51.04 0 01.67 4.097H1.642a56.835 56.835 0 01.839-4.06c.346-1.4.778-2.876 1.298-4.185.528-1.327 1.114-2.397 1.73-3.053zM17.384 5.91c0 2.637-2.34 4.908-5.397 4.908-3.057 0-5.397-2.27-5.397-4.909C6.59 3.271 8.93 1 11.987 1c3.056 0 5.397 2.271 5.397 4.91z" stroke="#E2E2E2" stroke-width="2"/></svg>