<svg width="20" height="20" fill="none" xmlns="http://www.w3.org/2000/svg"><path d="M10.933 20H9.067a1.249 1.249 0 01-1.239-1.1l-.199-1.563a7.882 7.882 0 01-1.145-.474l-1.245.967a1.243 1.243 0 01-1.654-.105l-1.313-1.313a1.24 1.24 0 01-.101-1.649l.967-1.245a7.695 7.695 0 01-.474-1.146l-1.567-.199A1.25 1.25 0 010 10.933V9.067c0-.631.472-1.164 1.1-1.239l1.563-.199c.13-.397.289-.78.475-1.145L2.17 5.24a1.242 1.242 0 01.106-1.655l1.312-1.312a1.24 1.24 0 011.65-.102l1.244.968a7.846 7.846 0 011.146-.474l.2-1.567A1.248 1.248 0 019.066 0h1.866c.631 0 1.164.472 1.239 1.1l.199 1.563c.398.13.781.289 1.146.475l1.245-.968a1.242 1.242 0 011.654.106l1.312 1.312a1.24 1.24 0 01.102 1.65l-.967 1.245c.186.365.345.748.474 1.145l1.566.2A1.25 1.25 0 0120 9.066v1.866c0 .631-.473 1.164-1.1 1.239l-1.563.199a7.88 7.88 0 01-.474 1.145l.967 1.245a1.241 1.241 0 01-.106 1.654l-1.312 1.313a1.239 1.239 0 01-1.65.101l-1.245-.967a7.698 7.698 0 01-1.145.474l-.2 1.567A1.25 1.25 0 0110.933 20zm-4.491-4.05c.069 0 .14.018.203.053.46.256.957.463 1.478.613.16.046.278.182.299.347l.233 1.834c.025.209.206.37.412.37h1.866a.42.42 0 00.411-.366l.234-1.837a.416.416 0 01.299-.347 6.995 6.995 0 001.478-.614.416.416 0 01.458.035l1.459 1.134a.41.41 0 00.546-.029l1.32-1.32a.412.412 0 00.033-.55l-1.133-1.459a.416.416 0 01-.035-.458 6.99 6.99 0 00.613-1.479.416.416 0 01.347-.298l1.834-.233a.423.423 0 00.37-.413V9.067a.42.42 0 00-.366-.411l-1.837-.234a.416.416 0 01-.347-.299 6.993 6.993 0 00-.614-1.478.415.415 0 01.035-.458l1.134-1.459a.409.409 0 00-.028-.545l-1.32-1.32a.41.41 0 00-.55-.033l-1.459 1.133a.417.417 0 01-.46.035 6.966 6.966 0 00-1.478-.613.416.416 0 01-.298-.347l-.233-1.834a.423.423 0 00-.413-.37H9.067a.42.42 0 00-.411.365l-.234 1.837a.418.418 0 01-.299.348c-.523.15-1.02.357-1.478.613a.417.417 0 01-.46-.034L4.729 2.829a.409.409 0 00-.545.028L2.862 4.178a.412.412 0 00-.033.55l1.133 1.459a.416.416 0 01.035.458c-.257.46-.463.957-.613 1.478a.416.416 0 01-.347.299l-1.834.233a.421.421 0 00-.37.412v1.866a.42.42 0 00.366.411l1.837.234a.417.417 0 01.347.299c.15.521.357 1.019.614 1.478a.414.414 0 01-.035.458l-1.134 1.459a.409.409 0 00.028.545l1.32 1.32c.146.151.38.163.55.033l1.459-1.133a.429.429 0 01.257-.087z" fill="#050505"/><path d="M10 14.167A4.171 4.171 0 015.833 10 4.171 4.171 0 0110 5.833 4.171 4.171 0 0114.166 10 4.171 4.171 0 0110 14.167zm0-7.5A3.337 3.337 0 006.666 10 3.337 3.337 0 0010 13.333 3.337 3.337 0 0013.333 10 3.337 3.337 0 0010 6.667z" fill="#050505"/></svg>