<svg width="60" height="19" fill="none" xmlns="http://www.w3.org/2000/svg"><path d="M11.365 9.436L9.727 1.64C9.522.513 8.601.205 7.679.205H.102L0 .513c5.836 1.436 9.727 4.82 11.365 8.923z" fill="#E2E2E2"/><path d="M16.894.308l-4.812 12.205-.512-1.846c-.921-2.154-3.584-5.333-6.655-7.385l4.402 14.975h5.12L22.014.41h-5.12V.308zm4.096 17.949h4.812L28.874.307h-4.915l-2.97 17.95zM38.6 7.487c-1.638-.82-2.764-1.333-2.764-2.154 0-.718.922-1.538 2.765-1.538 1.638 0 2.764.308 3.583.718l.41.205.717-3.897A11.41 11.41 0 0039.01 0c-4.813 0-8.192 2.462-8.192 5.846 0 2.564 2.457 4 4.3 4.82 1.946.821 2.56 1.437 2.56 2.154 0 1.129-1.536 1.744-2.97 1.744-1.945 0-2.968-.205-4.607-.923l-.614-.205-.717 4.102c1.127.513 3.277.924 5.427.924 5.12 0 8.498-2.462 8.498-6.154 0-1.949-1.228-3.487-4.095-4.82zM56.007.308h-3.789c-1.126 0-2.047.308-2.56 1.538l-7.166 16.41h5.119s.819-2.153 1.024-2.666h6.245c.205.615.615 2.667.615 2.667H60L56.007.307zm-6.041 11.487c.41-1.026 1.945-5.026 1.945-5.026 0 .103.41-1.025.717-1.64l.307 1.64s.922 4.308 1.126 5.231l-4.095-.205z" fill="#E2E2E2"/></svg>