<?xml version="1.0" encoding="utf-8"?>
<!-- Generator: Adobe Illustrator 21.0.1, SVG Export Plug-In . SVG Version: 6.00 Build 0)  -->
<svg version="1.1" id="Слой_1" xmlns="http://www.w3.org/2000/svg" xmlns:xlink="http://www.w3.org/1999/xlink" x="0px" y="0px"
	 viewBox="0 0 283.5 283.5" style="enable-background:new 0 0 283.5 283.5;" xml:space="preserve">
<style type="text/css">
	.st0{stroke:#FFFFFF;stroke-miterlimit:10;}
	.st1{fill:#FFFFFF;}
	.st2{fill:#E0E0E0;}
</style>
<rect class="st0" width="283.5" height="283.5"/>
<g>
	<ellipse class="st1" cx="133.3" cy="62.4" rx="24.2" ry="22.8"/>
	<ellipse class="st1" cx="74.3" cy="67.2" rx="17.2" ry="16.2"/>
	<ellipse class="st1" cx="110" cy="70" rx="14.8" ry="14"/>
	<ellipse class="st1" cx="153.3" cy="78.9" rx="14" ry="6.1"/>
	<ellipse class="st1" cx="39.4" cy="78.8" rx="14" ry="6.1"/>
	<ellipse class="st1" cx="52.7" cy="61.2" rx="24.2" ry="22.8"/>
	<path class="st2" d="M66.7,79.8c-1.4,0-2.8,0-4.2,0c2.1-1.7,5.5-4.9,7.9-10c1-2.2,4-8.6,2.3-15.5c-2-7.8-9.4-13.8-18.7-15.8l0,0
		c9.7,0,18.4,6.1,21.6,15.1C78.9,63.1,75.3,73.9,66.7,79.8z"/>
	<path class="st2" d="M147.5,80.9c-1.4,0-2.8,0-4.2,0c2.1-1.7,5.5-4.9,7.9-10c1-2.2,4-8.6,2.3-15.5c-2-7.8-9.4-13.8-18.7-15.8l0,0
		c9.7,0,18.4,6.1,21.6,15.1C159.7,64.2,156.1,75.1,147.5,80.9z"/>
	<path class="st2" d="M84,79.8c-1.1,0-2.1,0-3.2,0c1.5-1.1,4.1-3.4,5.9-6.9c0.8-1.5,3-5.9,1.7-10.6c-1.5-5.3-7-9.5-14-10.9l0,0
		c7.3,0,13.8,4.1,16.2,10.3C93.1,68.3,90.4,75.8,84,79.8z"/>
	<path class="st2" d="M97.3,84c-1.1,0-2.1,0-3.2,0c1.5-0.7,4.1-2,5.8-4.1c0.8-0.9,3-3.5,1.7-6.3c-1.4-3.2-7-5.6-13.9-6.5l0,0
		c7.2,0,13.7,2.5,16,6.1C106.3,77.2,103.7,81.6,97.3,84z"/>
	<ellipse class="st1" cx="90.6" cy="76.2" rx="10.4" ry="9"/>
	<path class="st1" d="M162.8,85.2H29.9c-2.5,0-4.4-2-4.4-4.4v-0.3c0-0.3,0.3-0.6,0.6-0.6h140.5c0.3,0,0.6,0.3,0.6,0.6v0.3
		C167.2,83.2,165.2,85.2,162.8,85.2z"/>
	<ellipse class="st1" cx="22.3" cy="43.4" rx="3.2" ry="2.4"/>
	<circle class="st2" cx="70.3" cy="35.5" r="1.2"/>
	<circle class="st1" cx="85.5" cy="44.7" r="2.6"/>
	<circle class="st1" cx="161.5" cy="39.6" r="2.6"/>
	<ellipse class="st2" cx="121.3" cy="32.7" rx="3.5" ry="2.8"/>
	<ellipse class="st2" cx="122.8" cy="32.7" rx="3.5" ry="2.8"/>
</g>
<g>
	<ellipse class="st1" cx="215.1" cy="128.3" rx="14.8" ry="14"/>
	<ellipse class="st1" cx="247" cy="138.9" rx="14" ry="6.1"/>
	<ellipse class="st1" cx="133.2" cy="138.8" rx="14" ry="6.1"/>
	<g>
		<ellipse class="st1" cx="202.3" cy="117" rx="24.2" ry="22.8"/>
		<path class="st2" d="M216.5,135.6c-1.4,0-2.8,0-4.2,0c2.1-1.7,5.5-4.9,7.9-10c1-2.2,4-8.6,2.3-15.5c-2-7.8-9.4-13.8-18.7-15.8l0,0
			c9.7,0,18.4,6.1,21.6,15.1C228.6,118.9,225.1,129.7,216.5,135.6z"/>
	</g>
	<g>
		<ellipse class="st1" cx="173.4" cy="120.9" rx="24.2" ry="22.8"/>
		<path class="st2" d="M187.4,139.4c-1.4,0-2.8,0-4.2,0c2.1-1.7,5.5-4.9,7.9-10c1-2.2,4-8.6,2.3-15.5c-2-7.8-9.4-13.8-18.7-15.8l0,0
			c9.7,0,18.4,6.1,21.6,15.1C199.5,122.7,196,133.6,187.4,139.4z"/>
	</g>
	<g>
		<ellipse class="st1" cx="150.6" cy="131.7" rx="14" ry="13.2"/>
		<path class="st2" d="M158.5,142c-0.9,0-1.7,0-2.6,0c1.3-0.9,3.3-2.7,4.8-5.6c0.6-1.2,2.4-4.8,1.4-8.6c-1.2-4.3-5.7-7.7-11.4-8.8
			l0,0c5.9,0,11.2,3.4,13.2,8.4C165.9,132.7,163.7,138.7,158.5,142z"/>
	</g>
	<g>
		<ellipse class="st1" cx="222.5" cy="129.2" rx="14" ry="13.2"/>
		<path class="st2" d="M230.3,139.5c-0.9,0-1.7,0-2.6,0c1.3-0.9,3.3-2.7,4.8-5.6c0.6-1.2,2.4-4.8,1.4-8.6c-1.2-4.3-5.7-7.7-11.4-8.8
			l0,0c5.9,0,11.2,3.4,13.2,8.4C237.7,130.2,235.6,136.2,230.3,139.5z"/>
	</g>
	<g>
		<ellipse class="st1" cx="238.4" cy="133.9" rx="11.9" ry="11.2"/>
		<path class="st2" d="M245.2,142.6c-0.7,0-1.5,0-2.2,0c1.1-0.8,2.8-2.3,4.1-4.8c0.5-1,2.1-4.1,1.2-7.4c-1-3.7-4.9-6.6-9.7-7.5l0,0
			c5.1,0,9.6,2.9,11.2,7.2C251.5,134.7,249.6,139.8,245.2,142.6z"/>
	</g>
	<g>
		<ellipse class="st1" cx="222.5" cy="114.9" rx="13.7" ry="12.9"/>
		<path class="st2" d="M230.2,125c-0.8,0-1.7,0-2.5,0c1.2-0.9,3.3-2.7,4.7-5.5c0.6-1.2,2.4-4.7,1.4-8.4c-1.2-4.2-5.6-7.5-11.2-8.6
			l0,0c5.8,0,11,3.3,12.9,8.2C237.4,115.9,235.3,121.8,230.2,125z"/>
	</g>
	<g>
		<path class="st2" d="M195.6,142.3c-1.1,0-2.1,0-3.2,0c1.5-0.7,4.1-2,5.8-4.1c0.8-0.9,3-3.5,1.7-6.3c-1.4-3.2-7-5.6-13.9-6.5l0,0
			c7.2,0,13.7,2.5,16,6.1C204.6,135.5,201.9,139.9,195.6,142.3z"/>
		<ellipse class="st1" cx="188.9" cy="134.4" rx="10.4" ry="9"/>
	</g>
	<path class="st1" d="M256.5,145.2H123.7c-2.5,0-4.4-2-4.4-4.4v-0.3c0-0.3,0.3-0.6,0.6-0.6h140.5c0.3,0,0.6,0.3,0.6,0.6v0.3
		C261,143.2,259,145.2,256.5,145.2z"/>
	<circle class="st1" cx="125.2" cy="112.3" r="3.7"/>
	<circle class="st1" cx="238.4" cy="94.3" r="3.8"/>
	<circle class="st1" cx="244.2" cy="99.6" r="2.8"/>
</g>
<g>
	<ellipse class="st1" cx="134.2" cy="234.9" rx="14" ry="6.1"/>
	<ellipse class="st1" cx="34.6" cy="234.9" rx="14" ry="6.1"/>
	<g>
		<ellipse class="st1" cx="97.5" cy="215.6" rx="24.2" ry="22.8"/>
		<path class="st2" d="M111.6,234.2c-1.4,0-2.8,0-4.2,0c2.1-1.7,5.5-4.9,7.9-10c1-2.2,4-8.6,2.3-15.5c-2-7.8-9.4-13.8-18.7-15.8l0,0
			c9.7,0,18.4,6.1,21.6,15.1C123.8,217.5,120.2,228.3,111.6,234.2z"/>
	</g>
	<g>
		<ellipse class="st1" cx="74.8" cy="217" rx="24.2" ry="22.8"/>
		<path class="st2" d="M88.8,235.6c-1.4,0-2.8,0-4.2,0c2.1-1.7,5.5-4.9,7.9-10c1-2.2,4-8.6,2.3-15.5c-2-7.8-9.4-13.8-18.7-15.8l0,0
			c9.7,0,18.4,6.1,21.6,15.1C100.9,218.8,97.3,229.7,88.8,235.6z"/>
	</g>
	<g>
		<ellipse class="st1" cx="119.2" cy="222" rx="18.8" ry="17.8"/>
		<path class="st2" d="M130.2,236.5c-1.1,0-2.2,0-3.3,0c1.6-1.3,4.3-3.8,6.1-7.8c0.8-1.7,3.1-6.7,1.8-12
			c-1.5-6.1-7.3-10.8-14.6-12.3l0,0c7.6,0,14.4,4.7,16.8,11.7C139.6,223.5,136.8,231.9,130.2,236.5z"/>
	</g>
	<g>
		<ellipse class="st1" cx="52" cy="227.8" rx="14" ry="13.2"/>
		<path class="st2" d="M59.8,238.1c-0.9,0-1.7,0-2.6,0c1.3-0.9,3.3-2.7,4.8-5.6c0.6-1.2,2.4-4.8,1.4-8.6c-1.2-4.3-5.7-7.7-11.4-8.8
			l0,0c5.9,0,11.2,3.4,13.2,8.4C67.2,228.8,65.1,234.9,59.8,238.1z"/>
	</g>
	<path class="st1" d="M143.9,241.1H25c-2.5,0-4.4-2-4.4-4.4l0,0c0-0.3,0.3-0.6,0.6-0.6h126.5c0.3,0,0.6,0.3,0.6,0.6l0,0
		C148.4,239.2,146.4,241.1,143.9,241.1z"/>
	<circle class="st1" cx="30.3" cy="206.9" r="2.2"/>
	<circle class="st1" cx="25.9" cy="206.9" r="2.2"/>
	<circle class="st1" cx="28.1" cy="206.9" r="2.2"/>
	<ellipse class="st1" cx="135.9" cy="197.2" rx="8.3" ry="3"/>
	
		<ellipse transform="matrix(0.7071 -0.7071 0.7071 0.7071 -142.0691 87.4782)" class="st1" cx="34.6" cy="215.2" rx="2.3" ry="2.3"/>
</g>
</svg>
