<svg width="48" height="48" fill="none" xmlns="http://www.w3.org/2000/svg"><path d="M35.493 1.333h6.104a5.333 5.333 0 013.533 1.253 5.175 5.175 0 011.794 3.247v15.75a5.175 5.175 0 01-1.794 3.247 5.333 5.333 0 01-3.533 1.253h-6.104m-16.004 4.5v9c0 1.79.723 3.507 2.009 4.773a6.915 6.915 0 004.85 1.977l9.145-20.25V1.333H9.703a4.617 4.617 0 00-3.012 1.071 4.482 4.482 0 00-1.56 2.754l-3.155 20.25a4.467 4.467 0 001.07 3.628c.435.492.974.886 1.579 1.153a4.635 4.635 0 001.924.394h12.94z" stroke="#000" stroke-width="2" stroke-linecap="round" stroke-linejoin="round"/></svg>