<svg width="47" height="47" fill="none" xmlns="http://www.w3.org/2000/svg"><path d="M12.431 46H5.573a4.61 4.61 0 01-3.234-1.318A4.464 4.464 0 011 41.5V25.75c0-1.194.482-2.338 1.34-3.182a4.61 4.61 0 013.233-1.318h6.858m16.004-4.5v-9c0-1.79-.722-3.507-2.009-4.773A6.915 6.915 0 0021.576 1l-9.145 20.25V46h25.79a4.617 4.617 0 003.013-1.071 4.482 4.482 0 001.56-2.754l3.154-20.25c.1-.645.056-1.304-.13-1.93a4.478 4.478 0 00-.94-1.698 4.566 4.566 0 00-1.578-1.153 4.635 4.635 0 00-1.924-.394h-12.94z" stroke="#000" stroke-width="2" stroke-linecap="round" stroke-linejoin="round"/></svg>