<svg width="274" height="274" viewBox="0 0 274 274" fill="none" xmlns="http://www.w3.org/2000/svg">
<path d="M173.534 178.1C173.534 175.579 171.488 173.534 168.967 173.534C166.446 173.534 164.401 175.579 164.401 178.1V187.234C164.401 189.754 166.446 191.8 168.967 191.8C171.488 191.8 173.534 189.754 173.534 187.234V178.1Z" fill="white"/>
<path d="M168.966 228.333C166.446 228.333 164.4 230.379 164.4 232.9V251.166C164.4 253.687 166.446 255.733 168.966 255.733C171.487 255.733 173.533 253.687 173.533 251.166V232.9C173.534 230.379 171.488 228.333 168.966 228.333Z" fill="white"/>
<path d="M191.8 123.3C191.8 120.779 189.754 118.734 187.234 118.734C184.713 118.734 182.667 120.779 182.667 123.3V132.434C182.667 134.954 184.713 137 187.234 137C189.754 137 191.8 134.954 191.8 132.434V123.3Z" fill="white"/>
<path d="M173.534 150.7C173.534 148.179 171.488 146.133 168.967 146.133C166.446 146.133 164.401 148.179 164.401 150.7V159.833C164.401 162.354 166.446 164.4 168.967 164.4C171.488 164.4 173.534 162.354 173.534 159.833V150.7Z" fill="white"/>
<path d="M173.534 205.5C173.534 202.979 171.488 200.933 168.967 200.933C166.446 200.933 164.4 202.979 164.4 205.5V214.633C164.4 217.154 166.446 219.2 168.966 219.2C171.487 219.2 173.533 217.154 173.533 214.633V205.5H173.534Z" fill="white"/>
<path d="M191.8 150.7C191.8 148.179 189.754 146.133 187.234 146.133C184.713 146.133 182.667 148.179 182.667 150.7V159.833C182.667 162.354 184.713 164.4 187.234 164.4C189.754 164.4 191.8 162.354 191.8 159.833V150.7Z" fill="white"/>
<path d="M155.266 123.3C155.266 120.779 153.221 118.734 150.7 118.734C148.179 118.734 146.133 120.779 146.133 123.3V132.434C146.133 134.954 148.179 137 150.7 137C153.221 137 155.266 134.954 155.266 132.434V123.3Z" fill="white"/>
<path d="M173.534 123.3C173.534 120.779 171.488 118.734 168.967 118.734C166.446 118.734 164.401 120.779 164.401 123.3V132.434C164.401 134.954 166.446 137 168.967 137C171.488 137 173.534 134.954 173.534 132.434V123.3Z" fill="white"/>
<path d="M191.8 77.6335V68.5C191.8 65.9794 189.754 63.9335 187.234 63.9335C184.713 63.9335 182.667 65.9794 182.667 68.5V77.6335C182.667 80.1541 184.713 82.2 187.234 82.2C189.754 82.2 191.8 80.1541 191.8 77.6335Z" fill="white"/>
<path d="M155.266 150.7C155.266 148.179 153.221 146.133 150.7 146.133C148.179 146.133 146.133 148.179 146.133 150.7V159.833C146.133 162.354 148.179 164.4 150.7 164.4C153.221 164.4 155.266 162.354 155.266 159.833V150.7Z" fill="white"/>
<path d="M210.066 68.5C210.066 65.9794 208.021 63.9335 205.5 63.9335C202.979 63.9335 200.934 65.9794 200.934 68.5V77.6335C200.934 80.1541 202.979 82.2 205.5 82.2C208.021 82.2 210.066 80.1541 210.066 77.6335V68.5Z" fill="white"/>
<path d="M150.7 173.534C148.179 173.534 146.133 175.579 146.133 178.1V187.234C146.133 189.754 148.179 191.8 150.7 191.8C153.221 191.8 155.266 189.754 155.266 187.234V178.1C155.266 175.579 153.221 173.534 150.7 173.534Z" fill="white"/>
<path d="M228.334 205.5C228.334 202.979 226.288 200.933 223.767 200.933C221.246 200.933 219.2 202.979 219.2 205.5V214.633C219.2 217.154 221.246 219.2 223.766 219.2C226.287 219.2 228.333 217.154 228.333 214.633V205.5H228.334Z" fill="white"/>
<path d="M223.766 228.333C221.246 228.333 219.2 230.379 219.2 232.9V251.166C219.2 253.687 221.246 255.733 223.766 255.733C226.287 255.733 228.333 253.687 228.333 251.166V232.9C228.333 230.379 226.288 228.333 223.766 228.333Z" fill="white"/>
<path d="M242.034 173.534C239.513 173.534 237.467 175.579 237.467 178.1V187.234C237.467 189.754 239.513 191.8 242.034 191.8C244.554 191.8 246.6 189.754 246.6 187.234V178.1C246.6 175.579 244.554 173.534 242.034 173.534Z" fill="white"/>
<path d="M168.966 82.2C171.487 82.2 173.533 80.1541 173.533 77.6335V58.3668L219.2 46.9498V123.3C219.2 125.204 220.383 126.908 222.164 127.579L255.734 140.165V187.234C255.734 189.754 257.779 191.8 260.3 191.8C262.821 191.8 264.866 189.754 264.866 187.234V137C264.866 135.096 263.684 133.393 261.903 132.721L228.333 120.135V31.9665C228.333 29.4459 226.287 27.4 223.766 27.4C221.246 27.4 219.2 29.4459 219.2 31.9665V37.5332L167.857 50.37C165.825 50.8768 164.4 52.7038 164.4 54.7995V77.633C164.4 80.1541 166.446 82.2 168.966 82.2Z" fill="white"/>
<path d="M246.6 150.7C246.6 148.179 244.554 146.133 242.034 146.133C239.513 146.133 237.467 148.179 237.467 150.7V159.833C237.467 162.354 239.513 164.4 242.034 164.4C244.554 164.4 246.6 162.354 246.6 159.833V150.7Z" fill="white"/>
<path d="M228.334 150.7C228.334 148.179 226.288 146.133 223.767 146.133C221.246 146.133 219.201 148.179 219.201 150.7V159.833C219.201 162.354 221.246 164.4 223.767 164.4C226.288 164.4 228.334 162.354 228.334 159.833V150.7Z" fill="white"/>
<path d="M191.8 205.5C191.8 202.979 189.754 200.933 187.234 200.933C184.713 200.933 182.667 202.979 182.667 205.5V214.633C182.667 217.154 184.713 219.2 187.234 219.2C189.754 219.2 191.8 217.154 191.8 214.633V205.5Z" fill="white"/>
<path d="M228.334 178.1C228.334 175.579 226.288 173.534 223.767 173.534C221.246 173.534 219.201 175.579 219.201 178.1V187.234C219.201 189.754 221.246 191.8 223.767 191.8C226.288 191.8 228.334 189.754 228.334 187.234V178.1Z" fill="white"/>
<path d="M187.234 228.333C184.713 228.333 182.667 230.379 182.667 232.9V251.166C182.667 253.687 184.713 255.733 187.234 255.733C189.754 255.733 191.8 253.687 191.8 251.166V232.9C191.8 230.379 189.754 228.333 187.234 228.333Z" fill="white"/>
<path d="M191.8 178.1C191.8 175.579 189.754 173.534 187.234 173.534C184.713 173.534 182.667 175.579 182.667 178.1V187.234C182.667 189.754 184.713 191.8 187.234 191.8C189.754 191.8 191.8 189.754 191.8 187.234V178.1Z" fill="white"/>
<path d="M205.5 255.734C208.021 255.734 210.066 253.688 210.066 251.167V105.034C210.066 102.937 208.637 101.111 206.609 100.604L133.543 82.337C132.187 81.9945 130.73 82.3049 129.624 83.1681C128.515 84.0313 127.866 85.3601 127.866 86.7665V187.233C127.866 189.754 129.912 191.799 132.433 191.799C134.954 191.799 136.999 189.754 136.999 187.233V92.6168L200.933 108.6V251.167C200.934 253.688 202.979 255.734 205.5 255.734Z" fill="white"/>
<path d="M100.466 95.9C100.466 93.3794 98.4206 91.3335 95.9 91.3335C93.3794 91.3335 91.3335 93.3794 91.3335 95.9V105.033C91.3335 107.554 93.3794 109.6 95.9 109.6C98.4206 109.6 100.466 107.554 100.466 105.033V95.9Z" fill="white"/>
<path d="M100.466 68.5C100.466 65.9794 98.4206 63.9335 95.9 63.9335C93.3794 63.9335 91.3335 65.9794 91.3335 68.5V77.6335C91.3335 80.1541 93.3794 82.2 95.9 82.2C98.4206 82.2 100.466 80.1541 100.466 77.6335V68.5Z" fill="white"/>
<path d="M63.9335 205.5C63.9335 202.979 61.8876 200.933 59.367 200.933C56.8464 200.933 54.8 202.979 54.8 205.5V214.633C54.8 217.154 56.8459 219.2 59.3665 219.2C61.8871 219.2 63.933 217.154 63.933 214.633V205.5H63.9335Z" fill="white"/>
<path d="M22.8335 164.4C25.3541 164.4 27.4 162.354 27.4 159.833V137H73.0665V251.166C73.0665 253.687 75.1124 255.733 77.633 255.733C80.1536 255.733 82.1995 253.687 82.1995 251.166V132.433C82.1995 129.913 80.1536 127.867 77.633 127.867H22.833C20.3124 127.867 18.2665 129.913 18.2665 132.433V159.833C18.2665 162.354 20.3124 164.4 22.8335 164.4Z" fill="white"/>
<path d="M73.0665 95.9V105.033C73.0665 107.554 75.1124 109.6 77.6329 109.6C80.1535 109.6 82.1994 107.554 82.1994 105.033V95.9C82.1994 93.3794 80.1535 91.3335 77.6329 91.3335C75.1124 91.3335 73.0665 93.3794 73.0665 95.9Z" fill="white"/>
<path d="M100.466 41.1C100.466 38.5794 98.4206 36.5335 95.9 36.5335C93.3794 36.5335 91.3335 38.5794 91.3335 41.1V50.2335C91.3335 52.7541 93.3794 54.8 95.9 54.8C98.4206 54.8 100.466 52.7541 100.466 50.2335V41.1Z" fill="white"/>
<path d="M59.3665 228.333C56.8459 228.333 54.8 230.379 54.8 232.9V251.166C54.8 253.687 56.8459 255.733 59.3665 255.733C61.8871 255.733 63.933 253.687 63.933 251.166V232.9C63.9335 230.379 61.8876 228.333 59.3665 228.333Z" fill="white"/>
<path d="M269.434 264.866H260.3V236.818C268.154 234.777 274 227.684 274 219.199C274 209.125 265.807 200.933 255.734 200.933C245.66 200.933 237.467 209.126 237.467 219.199C237.467 227.684 243.313 234.776 251.167 236.818V264.866H137V246.139C147.407 244.015 155.266 234.795 155.266 223.766C155.266 211.176 145.024 200.933 132.433 200.933C119.843 200.933 109.599 211.176 109.599 223.766C109.599 234.795 117.459 244.015 127.866 246.139V264.866H27.4V218.739C37.8072 216.615 45.6665 207.395 45.6665 196.366C45.6665 183.776 35.4236 173.533 22.833 173.533C10.2429 173.533 0 183.776 0 196.366C0 207.395 7.8593 216.615 18.2665 218.739V264.866H4.56649C2.0459 264.866 0 266.912 0 269.433C0 271.954 2.0459 274 4.56649 274H269.433C271.954 274 273.999 271.954 273.999 269.434C273.999 266.913 271.954 264.866 269.434 264.866ZM9.13351 196.366C9.13351 188.813 15.2803 182.666 22.8335 182.666C30.3867 182.666 36.5335 188.813 36.5335 196.366C36.5335 203.92 30.3867 210.066 22.8335 210.066C15.2803 210.066 9.13351 203.92 9.13351 196.366ZM118.734 223.766C118.734 216.213 124.88 210.066 132.434 210.066C139.987 210.066 146.133 216.213 146.133 223.766C146.133 231.32 139.987 237.466 132.434 237.466C124.88 237.466 118.734 231.32 118.734 223.766ZM246.6 219.2C246.6 214.163 250.696 210.066 255.734 210.066C260.771 210.066 264.867 214.163 264.867 219.2C264.867 224.237 260.771 228.333 255.734 228.333C250.696 228.333 246.6 224.237 246.6 219.2Z" fill="white"/>
<path d="M36.5335 232.9V251.166C36.5335 253.687 38.5794 255.733 41.1 255.733C43.6206 255.733 45.6665 253.687 45.6665 251.166V232.9C45.6665 230.379 43.6206 228.333 41.1 228.333C38.5794 228.333 36.5335 230.379 36.5335 232.9Z" fill="white"/>
<path d="M63.9335 150.7C63.9335 148.179 61.8876 146.133 59.367 146.133C56.8464 146.133 54.8005 148.179 54.8005 150.7V159.833C54.8005 162.354 56.8464 164.4 59.367 164.4C61.8876 164.4 63.9335 162.354 63.9335 159.833V150.7Z" fill="white"/>
<path d="M63.9335 178.1C63.9335 175.579 61.8876 173.534 59.367 173.534C56.8464 173.534 54.8005 175.579 54.8005 178.1V187.234C54.8005 189.754 56.8464 191.8 59.367 191.8C61.8876 191.8 63.9335 189.754 63.9335 187.234V178.1Z" fill="white"/>
<path d="M36.5335 150.7V159.833C36.5335 162.354 38.5794 164.4 41.1 164.4C43.6206 164.4 45.6665 162.354 45.6665 159.833V150.7C45.6665 148.179 43.6206 146.133 41.1 146.133C38.5794 146.133 36.5335 148.179 36.5335 150.7Z" fill="white"/>
<path d="M100.466 178.1C100.466 175.579 98.4206 173.534 95.9 173.534C93.3794 173.534 91.3335 175.579 91.3335 178.1V187.234C91.3335 189.754 93.3794 191.8 95.9 191.8C98.4206 191.8 100.466 189.754 100.466 187.234V178.1Z" fill="white"/>
<path d="M118.734 123.3C118.734 120.779 116.688 118.734 114.167 118.734C111.646 118.734 109.601 120.779 109.601 123.3V132.434C109.601 134.954 111.646 137 114.167 137C116.688 137 118.734 134.954 118.734 132.434V123.3Z" fill="white"/>
<path d="M118.734 95.9C118.734 93.3794 116.688 91.3335 114.167 91.3335C111.646 91.3335 109.601 93.3794 109.601 95.9V105.033C109.601 107.554 111.646 109.6 114.167 109.6C116.688 109.6 118.734 107.554 118.734 105.033V95.9Z" fill="white"/>
<path d="M118.734 150.7C118.734 148.179 116.688 146.133 114.167 146.133C111.646 146.133 109.601 148.179 109.601 150.7V159.833C109.601 162.354 111.646 164.4 114.167 164.4C116.688 164.4 118.734 162.354 118.734 159.833V150.7Z" fill="white"/>
<path d="M114.166 173.534C111.646 173.534 109.6 175.579 109.6 178.1V187.234C109.6 189.754 111.646 191.8 114.166 191.8C116.687 191.8 118.733 189.754 118.733 187.234V178.1C118.734 175.579 116.688 173.534 114.166 173.534Z" fill="white"/>
<path d="M118.734 68.5C118.734 65.9794 116.688 63.9335 114.167 63.9335C111.646 63.9335 109.601 65.9794 109.601 68.5V77.6335C109.601 80.1541 111.646 82.2 114.167 82.2C116.688 82.2 118.734 80.1541 118.734 77.6335V68.5Z" fill="white"/>
<path d="M100.466 205.5C100.466 202.979 98.4206 200.933 95.9 200.933C93.3794 200.933 91.3335 202.979 91.3335 205.5V214.633C91.3335 217.154 93.3794 219.2 95.9 219.2C98.4206 219.2 100.466 217.154 100.466 214.633V205.5Z" fill="white"/>
<path d="M59.3665 118.734C61.8871 118.734 63.933 116.688 63.933 114.167V80.4554L79.6741 72.587C81.2223 71.8105 82.1995 70.2307 82.1995 68.5V30.2224L105.033 18.8059L127.866 30.2224V68.5C127.866 71.0206 129.912 73.0665 132.433 73.0665C134.954 73.0665 137 71.0206 137 68.5V27.4C137 25.6693 136.023 24.089 134.475 23.313L109.6 10.8776V4.56649C109.6 2.0459 107.554 0 105.034 0C102.513 0 100.467 2.0459 100.467 4.56649V10.8776L75.5924 23.3125C74.0442 24.089 73.067 25.6688 73.067 27.3995V65.677L57.3259 73.5454C55.7777 74.322 54.8005 75.9017 54.8005 77.6324V114.166C54.8 116.688 56.8459 118.734 59.3665 118.734Z" fill="white"/>
<path d="M100.466 150.7C100.466 148.179 98.4206 146.133 95.9 146.133C93.3794 146.133 91.3335 148.179 91.3335 150.7V159.833C91.3335 162.354 93.3794 164.4 95.9 164.4C98.4206 164.4 100.466 162.354 100.466 159.833V150.7Z" fill="white"/>
<path d="M95.9 228.333C93.3794 228.333 91.3335 230.379 91.3335 232.9V251.166C91.3335 253.687 93.3794 255.733 95.9 255.733C98.4206 255.733 100.466 253.687 100.466 251.166V232.9C100.466 230.379 98.4206 228.333 95.9 228.333Z" fill="white"/>
<path d="M118.734 41.1C118.734 38.5794 116.688 36.5335 114.167 36.5335C111.646 36.5335 109.601 38.5794 109.601 41.1V50.2335C109.601 52.7541 111.646 54.8 114.167 54.8C116.688 54.8 118.734 52.7541 118.734 50.2335V41.1Z" fill="white"/>
<path d="M100.466 123.3C100.466 120.779 98.4206 118.734 95.9 118.734C93.3794 118.734 91.3335 120.779 91.3335 123.3V132.434C91.3335 134.954 93.3794 137 95.9 137C98.4206 137 100.466 134.954 100.466 132.434V123.3Z" fill="white"/>
</svg>
