<svg width="17" height="13" viewBox="0 0 17 13" fill="none" xmlns="http://www.w3.org/2000/svg">
<path d="M16.9946 0.80545C16.9927 0.786219 16.9889 0.76727 16.9833 0.748783C16.9776 0.730473 16.97 0.7128 16.9606 0.696083C16.9561 0.68815 16.9552 0.6788 16.9499 0.67115C16.9445 0.6635 16.9377 0.660383 16.9323 0.653866C16.9196 0.638956 16.9055 0.625391 16.8901 0.61335C16.8766 0.602583 16.8622 0.593091 16.847 0.585016C16.8312 0.57687 16.8146 0.570319 16.7974 0.565466C16.7789 0.559977 16.7599 0.556187 16.7407 0.554133C16.7323 0.554133 16.7249 0.549316 16.7161 0.549316H0.283333C0.274763 0.550591 0.266227 0.552291 0.257833 0.554416C0.239381 0.556258 0.221142 0.559977 0.203433 0.565466C0.185867 0.57046 0.16876 0.577118 0.152433 0.5853C0.137523 0.593446 0.123427 0.602937 0.110217 0.613633C0.0946333 0.625675 0.0803958 0.639346 0.0677167 0.654433C0.0623333 0.66095 0.0549667 0.664633 0.05015 0.671716C0.0453333 0.6788 0.0439167 0.688716 0.0393833 0.69665C0.0299979 0.713366 0.0223833 0.731039 0.0167167 0.74935C0.0110854 0.767837 0.00729583 0.786785 0.00538333 0.806016C0.00538333 0.815366 0 0.823583 0 0.83435V12.1671C0 12.3236 0.126862 12.4504 0.283333 12.4504H16.7167C16.8731 12.4504 17 12.3236 17 12.1671V0.833783C17 0.82415 16.9955 0.815933 16.9946 0.80545ZM15.8066 1.11712L8.5 6.1562L1.1934 1.11712H15.8066ZM16.4333 11.8838H0.566667V1.37353L8.33907 6.73363C8.43593 6.8005 8.56407 6.8005 8.66093 6.73363L16.4333 1.37353V11.8838Z" fill="#005FA3"/>
</svg>
