<svg width="11" height="21" viewBox="0 0 11 21" fill="none" xmlns="http://www.w3.org/2000/svg">
<path d="M9.48764 0.702393H1.24826C0.561824 0.702393 0 1.29707 0 2.0249V18.9596C0 19.6874 0.561824 20.2826 1.24826 20.2826H9.48764C10.1741 20.2826 10.7359 19.6885 10.7359 18.9601V2.0249C10.7359 1.29707 10.1741 0.702393 9.48764 0.702393ZM4.04999 1.65567H6.68591C6.76934 1.65567 6.83693 1.72728 6.83693 1.81623C6.83693 1.90462 6.76934 1.97623 6.68591 1.97623H4.04999C3.96656 1.97623 3.89897 1.90462 3.89897 1.81623C3.89897 1.72728 3.96656 1.65567 4.04999 1.65567ZM5.36795 19.6214C5.02315 19.6214 4.74382 19.3254 4.74382 18.9596C4.74382 18.5937 5.02315 18.2983 5.36795 18.2983C5.71275 18.2983 5.99208 18.5937 5.99208 18.9596C5.99208 19.3254 5.71275 19.6214 5.36795 19.6214ZM9.86729 17.8351H0.868609V2.79971H9.86729V17.8351Z" fill="white"/>
</svg>
