<svg width="11" height="19" viewBox="0 0 11 19" fill="none" xmlns="http://www.w3.org/2000/svg">
<path d="M9.48765 0H1.24826C0.561824 0 0 0.577057 0 1.28331V17.7161C0 18.4224 0.561824 19 1.24826 19H9.48765C10.1741 19 10.7359 18.4235 10.7359 17.7167V1.28331C10.7359 0.577057 10.1741 0 9.48765 0ZM4.04999 0.925029H6.68592C6.76935 0.925029 6.83694 0.994514 6.83694 1.08083C6.83694 1.1666 6.76935 1.23609 6.68592 1.23609H4.04999C3.96656 1.23609 3.89898 1.1666 3.89898 1.08083C3.89898 0.994514 3.96656 0.925029 4.04999 0.925029ZM5.36796 18.3583C5.02315 18.3583 4.74382 18.0712 4.74382 17.7161C4.74382 17.3611 5.02315 17.0745 5.36796 17.0745C5.71276 17.0745 5.99209 17.3611 5.99209 17.7161C5.99209 18.0712 5.71276 18.3583 5.36796 18.3583ZM9.8673 16.625H0.86861V2.03517H9.8673V16.625Z" fill="#005FA3"/>
</svg>
