<svg width="17" height="17" viewBox="0 0 17 17" fill="none" xmlns="http://www.w3.org/2000/svg">
<path d="M8.4882 0C5.05271 0 2.25781 2.7949 2.25781 6.23038C2.25781 7.80857 3.25222 10.0384 5.21354 12.8579C6.64711 14.919 8.05708 16.5139 8.11648 16.5808L8.4882 17L8.86005 16.5808C8.91932 16.5139 10.3293 14.919 11.763 12.8579C13.7242 10.0384 14.7187 7.80857 14.7187 6.23038C14.7187 2.7949 11.9237 0 8.4882 0ZM10.9525 12.2823C9.98351 13.6763 9.00414 14.876 8.4882 15.4881C7.97355 14.8777 6.99782 13.6825 6.02948 12.2903C4.21226 9.67793 3.2517 7.58237 3.2517 6.23038C3.2517 3.34301 5.60082 0.993889 8.4882 0.993889C11.3757 0.993889 13.7247 3.34301 13.7247 6.23038C13.7247 7.58095 12.7661 9.67365 10.9525 12.2823Z" fill="#005FA3"/>
<path d="M8.48815 2.30273C6.46056 2.30273 4.81104 3.95226 4.81104 5.97985C4.81104 8.00745 6.46056 9.6571 8.48815 9.6571C10.5159 9.6571 12.1654 8.00745 12.1654 5.97985C12.1654 3.95226 10.5159 2.30273 8.48815 2.30273ZM8.48815 8.66321C7.00867 8.66321 5.80492 7.45946 5.80492 5.97985C5.80492 4.50037 7.00867 3.29662 8.48815 3.29662C9.96777 3.29662 11.1715 4.50037 11.1715 5.97985C11.1715 7.45946 9.96777 8.66321 8.48815 8.66321Z" fill="#005FA3"/>
</svg>
