<svg width="92" height="92" viewBox="0 0 92 92" fill="none" xmlns="http://www.w3.org/2000/svg">
<g clip-path="url(#clip0)">
<path d="M85.7846 87.9895H83.2268V7.67348C83.2268 6.82568 82.5396 6.13882 81.6921 6.13882H53.0444C52.1967 6.13882 51.5097 6.82568 51.5097 7.67348V14.3238H48.4404V7.67348C48.4404 6.82568 47.7532 6.13882 46.9057 6.13882H40.2552V1.53466C40.2552 0.686854 39.568 0 38.7206 0C37.8731 0 37.1859 0.686854 37.1859 1.53466V6.13882H30.5356C29.6879 6.13882 29.0009 6.82568 29.0009 7.67348V14.3238H24.3967C23.5491 14.3238 22.8621 15.0107 22.8621 15.8585V28.6476H10.0729C9.22531 28.6476 8.53828 29.3345 8.53828 30.1823V87.9893H5.9801C5.13247 87.9893 4.44543 88.6762 4.44543 89.524C4.44543 90.3718 5.13264 91.0588 5.9801 91.0588H85.7846C86.6323 91.0588 87.3193 90.372 87.3193 89.5242C87.3193 88.6764 86.6321 87.9895 85.7846 87.9895ZM32.0701 9.20815H45.3707V14.3238H32.0701V9.20815ZM26.9544 87.9895H25.9312V85.4317C25.9312 84.5839 25.244 83.897 24.3966 83.897C23.5491 83.897 22.8619 84.5839 22.8619 85.4317V87.9895H21.8387V82.8738H26.9544V87.9895ZM37.1857 48.5987V51.2389V87.9895H30.0237V81.3392C30.0237 80.4914 29.3365 79.8045 28.4891 79.8045H20.3041C19.4564 79.8045 18.7694 80.4914 18.7694 81.3392V87.9895H11.6074V31.7171H37.1857V48.5987ZM38.7204 28.6478H25.9312V17.3933H51.5095V47.0641H40.2552V41.9484H44.8594C45.707 41.9484 46.394 41.2616 46.394 40.4138C46.394 39.5659 45.7068 38.8791 44.8594 38.8791H40.2552V33.7634H44.8594C45.707 33.7634 46.394 33.0766 46.394 32.2288C46.394 31.381 45.7068 30.6941 44.8594 30.6941H40.2552V30.1826C40.2552 29.3346 39.568 28.6478 38.7204 28.6478ZM65.8335 87.9895H40.2552V51.2389V50.1336H65.8335V87.9895ZM80.1573 87.9895H68.9028V48.5987V46.5524C68.9028 45.7046 68.2156 45.0177 67.3682 45.0177C66.5207 45.0177 65.8335 45.7046 65.8335 46.5524V47.0639H62.7642V46.5524C62.7642 45.7046 62.077 45.0177 61.2295 45.0177C60.3821 45.0177 59.6949 45.7046 59.6949 46.5524V47.0639H54.5792V15.8586V9.20815H80.1575V87.9895H80.1573Z" fill="white"/>
<path d="M46.9055 84.9204C47.7531 84.9204 48.4402 84.2331 48.4402 83.3857V54.7381C48.4402 53.8903 47.753 53.2034 46.9055 53.2034C46.0581 53.2034 45.3708 53.8903 45.3708 54.7381V83.3859C45.3708 84.2333 46.0579 84.9204 46.9055 84.9204Z" fill="white"/>
<path d="M53.0444 84.9204C53.892 84.9204 54.579 84.2331 54.579 83.3857V54.7381C54.579 53.8903 53.8918 53.2034 53.0444 53.2034C52.1969 53.2034 51.5097 53.8903 51.5097 54.7381V83.3859C51.5095 84.2333 52.1967 84.9204 53.0444 84.9204Z" fill="white"/>
<path d="M59.183 84.9204C60.0306 84.9204 60.7176 84.2331 60.7176 83.3857V54.7381C60.7176 53.8903 60.0304 53.2034 59.183 53.2034C58.3355 53.2034 57.6483 53.8903 57.6483 54.7381V83.3859C57.6483 84.2333 58.3355 84.9204 59.183 84.9204Z" fill="white"/>
<path d="M61.2293 19.4395C62.0769 19.4395 62.764 18.7526 62.764 17.9048V15.8586C62.764 15.0108 62.0768 14.324 61.2293 14.324C60.3819 14.324 59.6946 15.0108 59.6946 15.8586V17.905C59.6946 18.7526 60.3817 19.4395 61.2293 19.4395Z" fill="white"/>
<path d="M67.3682 19.4395C68.2158 19.4395 68.9028 18.7526 68.9028 17.9048V15.8586C68.9028 15.0108 68.2156 14.324 67.3682 14.324C66.5207 14.324 65.8335 15.0108 65.8335 15.8586V17.905C65.8335 18.7526 66.5205 19.4395 67.3682 19.4395Z" fill="white"/>
<path d="M73.507 19.4395C74.3546 19.4395 75.0416 18.7526 75.0416 17.9048V15.8586C75.0416 15.0108 74.3544 14.324 73.507 14.324C72.6595 14.324 71.9723 15.0108 71.9723 15.8586V17.905C71.9723 18.7526 72.6593 19.4395 73.507 19.4395Z" fill="white"/>
<path d="M61.2293 29.6708C62.0769 29.6708 62.764 28.9839 62.764 28.1361V26.0898C62.764 25.242 62.0768 24.5551 61.2293 24.5551C60.3819 24.5551 59.6946 25.242 59.6946 26.0898V28.1361C59.6946 28.9839 60.3817 29.6708 61.2293 29.6708Z" fill="white"/>
<path d="M67.3682 29.6708C68.2158 29.6708 68.9028 28.9839 68.9028 28.1361V26.0898C68.9028 25.242 68.2156 24.5551 67.3682 24.5551C66.5207 24.5551 65.8335 25.242 65.8335 26.0898V28.1361C65.8335 28.9839 66.5205 29.6708 67.3682 29.6708Z" fill="white"/>
<path d="M73.507 29.6708C74.3546 29.6708 75.0416 28.9839 75.0416 28.1361V26.0898C75.0416 25.242 74.3544 24.5551 73.507 24.5551C72.6595 24.5551 71.9723 25.242 71.9723 26.0898V28.1361C71.9723 28.9839 72.6593 29.6708 73.507 29.6708Z" fill="white"/>
<path d="M61.2293 39.9022C62.0769 39.9022 62.764 39.2154 62.764 38.3676V36.3213C62.764 35.4734 62.0768 34.7866 61.2293 34.7866C60.3819 34.7866 59.6946 35.4734 59.6946 36.3213V38.3676C59.6946 39.2152 60.3817 39.9022 61.2293 39.9022Z" fill="white"/>
<path d="M67.3682 39.9022C68.2158 39.9022 68.9028 39.2154 68.9028 38.3676V36.3213C68.9028 35.4734 68.2156 34.7866 67.3682 34.7866C66.5207 34.7866 65.8335 35.4734 65.8335 36.3213V38.3676C65.8335 39.2152 66.5205 39.9022 67.3682 39.9022Z" fill="white"/>
<path d="M73.507 39.9022C74.3546 39.9022 75.0416 39.2154 75.0416 38.3676V36.3213C75.0416 35.4734 74.3544 34.7866 73.507 34.7866C72.6595 34.7866 71.9723 35.4734 71.9723 36.3213V38.3676C71.9723 39.2152 72.6593 39.9022 73.507 39.9022Z" fill="white"/>
<path d="M18.2577 43.9948C19.1054 43.9948 19.7924 43.3079 19.7924 42.4601V40.4138C19.7924 39.5659 19.1052 38.8791 18.2577 38.8791C17.4103 38.8791 16.7231 39.5659 16.7231 40.4138V42.4601C16.7231 43.3077 17.4103 43.9948 18.2577 43.9948Z" fill="white"/>
<path d="M24.3966 43.9948C25.2442 43.9948 25.9312 43.3079 25.9312 42.4601V40.4138C25.9312 39.5659 25.244 38.8791 24.3966 38.8791C23.5491 38.8791 22.8619 39.5659 22.8619 40.4138V42.4601C22.8619 43.3077 23.5489 43.9948 24.3966 43.9948Z" fill="white"/>
<path d="M30.5354 43.9948C31.383 43.9948 32.0701 43.3079 32.0701 42.4601V40.4138C32.0701 39.5659 31.3828 38.8791 30.5354 38.8791C29.6879 38.8791 29.0007 39.5659 29.0007 40.4138V42.4601C29.0007 43.3077 29.6878 43.9948 30.5354 43.9948Z" fill="white"/>
<path d="M18.2577 54.2261C19.1054 54.2261 19.7924 53.5392 19.7924 52.6914V50.6451C19.7924 49.7973 19.1052 49.1104 18.2577 49.1104C17.4103 49.1104 16.7231 49.7973 16.7231 50.6451V52.6914C16.7231 53.539 17.4103 54.2261 18.2577 54.2261Z" fill="white"/>
<path d="M24.3966 54.2261C25.2442 54.2261 25.9312 53.5392 25.9312 52.6914V50.6451C25.9312 49.7973 25.244 49.1104 24.3966 49.1104C23.5491 49.1104 22.8619 49.7973 22.8619 50.6451V52.6914C22.8619 53.539 23.5489 54.2261 24.3966 54.2261Z" fill="white"/>
<path d="M30.5354 54.2261C31.383 54.2261 32.0701 53.5392 32.0701 52.6914V50.6451C32.0701 49.7973 31.3828 49.1104 30.5354 49.1104C29.6879 49.1104 29.0007 49.7973 29.0007 50.6451V52.6914C29.0007 53.539 29.6878 54.2261 30.5354 54.2261Z" fill="white"/>
<path d="M18.2577 64.4574C19.1054 64.4574 19.7924 63.7705 19.7924 62.9227V60.8764C19.7924 60.0286 19.1052 59.3417 18.2577 59.3417C17.4103 59.3417 16.7231 60.0286 16.7231 60.8764V62.9227C16.7231 63.7705 17.4103 64.4574 18.2577 64.4574Z" fill="white"/>
<path d="M24.3966 64.4574C25.2442 64.4574 25.9312 63.7705 25.9312 62.9227V60.8764C25.9312 60.0286 25.244 59.3417 24.3966 59.3417C23.5491 59.3417 22.8619 60.0286 22.8619 60.8764V62.9227C22.8619 63.7705 23.5489 64.4574 24.3966 64.4574Z" fill="white"/>
<path d="M30.5354 64.4574C31.383 64.4574 32.0701 63.7705 32.0701 62.9227V60.8764C32.0701 60.0286 31.3828 59.3417 30.5354 59.3417C29.6879 59.3417 29.0007 60.0286 29.0007 60.8764V62.9227C29.0007 63.7705 29.6878 64.4574 30.5354 64.4574Z" fill="white"/>
<path d="M18.2577 74.6887C19.1054 74.6887 19.7924 74.0018 19.7924 73.154V71.1077C19.7924 70.2599 19.1052 69.573 18.2577 69.573C17.4103 69.573 16.7231 70.2599 16.7231 71.1077V73.154C16.7231 74.0018 17.4103 74.6887 18.2577 74.6887Z" fill="white"/>
<path d="M24.3966 74.6887C25.2442 74.6887 25.9312 74.0018 25.9312 73.154V71.1077C25.9312 70.2599 25.244 69.573 24.3966 69.573C23.5491 69.573 22.8619 70.2599 22.8619 71.1077V73.154C22.8619 74.0018 23.5489 74.6887 24.3966 74.6887Z" fill="white"/>
<path d="M30.5354 74.6887C31.383 74.6887 32.0701 74.0018 32.0701 73.154V71.1077C32.0701 70.2599 31.3828 69.573 30.5354 69.573C29.6879 69.573 29.0007 70.2599 29.0007 71.1077V73.154C29.0007 74.0018 29.6878 74.6887 30.5354 74.6887Z" fill="white"/>
<path d="M73.507 50.1336C74.3546 50.1336 75.0416 49.4467 75.0416 48.5989V46.5526C75.0416 45.7048 74.3544 45.0179 73.507 45.0179C72.6595 45.0179 71.9723 45.7048 71.9723 46.5526V48.5989C71.9723 49.4465 72.6593 50.1336 73.507 50.1336Z" fill="white"/>
<path d="M73.507 60.3649C74.3546 60.3649 75.0416 59.678 75.0416 58.8302V56.7839C75.0416 55.9361 74.3544 55.2492 73.507 55.2492C72.6595 55.2492 71.9723 55.9361 71.9723 56.7839V58.8302C71.9723 59.6779 72.6593 60.3649 73.507 60.3649Z" fill="white"/>
<path d="M73.507 70.5962C74.3546 70.5962 75.0416 69.9093 75.0416 69.0615V67.0152C75.0416 66.1674 74.3544 65.4805 73.507 65.4805C72.6595 65.4805 71.9723 66.1674 71.9723 67.0152V69.0615C71.9723 69.9092 72.6593 70.5962 73.507 70.5962Z" fill="white"/>
<path d="M73.507 80.8275C74.3546 80.8275 75.0416 80.1407 75.0416 79.2928V77.2465C75.0416 76.3987 74.3544 75.7119 73.507 75.7119C72.6595 75.7119 71.9723 76.3987 71.9723 77.2465V79.2928C71.9723 80.1405 72.6593 80.8275 73.507 80.8275Z" fill="white"/>
<path d="M46.3938 24.0436C46.3938 23.1958 45.7066 22.5089 44.8592 22.5089H32.5815C31.7339 22.5089 31.0469 23.1958 31.0469 24.0436C31.0469 24.8914 31.7341 25.5783 32.5815 25.5783H44.8592C45.7068 25.5783 46.3938 24.8914 46.3938 24.0436Z" fill="white"/>
</g>
<defs>
<clipPath id="clip0">
<rect width="91.0588" height="91.0588" fill="white" transform="translate(0.352936)"/>
</clipPath>
</defs>
</svg>
