<svg width="92" height="92" viewBox="0 0 92 92" fill="none" xmlns="http://www.w3.org/2000/svg">
<g clip-path="url(#clip0)">
<path d="M85.9023 88.2248H83.3445V7.90877C83.3445 7.06097 82.6572 6.37411 81.8098 6.37411H53.162C52.3144 6.37411 51.6273 7.06097 51.6273 7.90877V14.5591H48.558V7.90877C48.558 7.06097 47.8708 6.37411 47.0234 6.37411H40.3729V1.76995C40.3729 0.922144 39.6856 0.235291 38.8382 0.235291C37.9907 0.235291 37.3035 0.922144 37.3035 1.76995V6.37411H30.6532C29.8056 6.37411 29.1186 7.06097 29.1186 7.90877V14.5591H24.5144C23.6668 14.5591 22.9797 15.2459 22.9797 16.0938V28.8829H10.1906C9.34296 28.8829 8.65593 29.5697 8.65593 30.4176V88.2246H6.09774C5.25011 88.2246 4.56308 88.9115 4.56308 89.7593C4.56308 90.6071 5.25029 91.2941 6.09774 91.2941H85.9023C86.7499 91.2941 87.437 90.6073 87.437 89.7595C87.437 88.9116 86.7497 88.2248 85.9023 88.2248ZM32.1877 9.44344H45.4883V14.5591H32.1877V9.44344ZM27.072 88.2248H26.0489V85.667C26.0489 84.8192 25.3617 84.1323 24.5142 84.1323C23.6668 84.1323 22.9796 84.8192 22.9796 85.667V88.2248H21.9564V83.1091H27.072V88.2248ZM37.3034 48.834V51.4742V88.2248H30.1414V81.5745C30.1414 80.7267 29.4542 80.0398 28.6067 80.0398H20.4217C19.5741 80.0398 18.8871 80.7267 18.8871 81.5745V88.2248H11.7251V31.9524H37.3034V48.834ZM38.838 28.8831H26.0489V17.6286H51.6272V47.2994H40.3729V42.1837H44.977C45.8247 42.1837 46.5117 41.4969 46.5117 40.649C46.5117 39.8012 45.8245 39.1144 44.977 39.1144H40.3729V33.9987H44.977C45.8247 33.9987 46.5117 33.3119 46.5117 32.4641C46.5117 31.6163 45.8245 30.9294 44.977 30.9294H40.3729V30.4179C40.3729 29.5699 39.6856 28.8831 38.838 28.8831ZM65.9511 88.2248H40.3729V51.4742V50.3689H65.9511V88.2248ZM80.275 88.2248H69.0205V48.834V46.7877C69.0205 45.9399 68.3333 45.253 67.4858 45.253C66.6384 45.253 65.9511 45.9399 65.9511 46.7877V47.2992H62.8818V46.7877C62.8818 45.9399 62.1946 45.253 61.3472 45.253C60.4997 45.253 59.8125 45.9399 59.8125 46.7877V47.2992H54.6968V16.0939V9.44344H80.2751V88.2248H80.275Z" fill="black"/>
<path d="M47.0232 85.1556C47.8708 85.1556 48.5578 84.4684 48.5578 83.621V54.9734C48.5578 54.1256 47.8706 53.4387 47.0232 53.4387C46.1757 53.4387 45.4885 54.1256 45.4885 54.9734V83.6212C45.4885 84.4686 46.1755 85.1556 47.0232 85.1556Z" fill="black"/>
<path d="M53.162 85.1556C54.0096 85.1556 54.6967 84.4684 54.6967 83.621V54.9734C54.6967 54.1256 54.0095 53.4387 53.162 53.4387C52.3146 53.4387 51.6273 54.1256 51.6273 54.9734V83.6212C51.6272 84.4686 52.3144 85.1556 53.162 85.1556Z" fill="black"/>
<path d="M59.3006 85.1556C60.1483 85.1556 60.8353 84.4684 60.8353 83.621V54.9734C60.8353 54.1256 60.1481 53.4387 59.3006 53.4387C58.4532 53.4387 57.766 54.1256 57.766 54.9734V83.6212C57.766 84.4686 58.4532 85.1556 59.3006 85.1556Z" fill="black"/>
<path d="M61.347 19.6747C62.1946 19.6747 62.8816 18.9879 62.8816 18.1401V16.0939C62.8816 15.2461 62.1944 14.5593 61.347 14.5593C60.4995 14.5593 59.8123 15.2461 59.8123 16.0939V18.1403C59.8123 18.9879 60.4993 19.6747 61.347 19.6747Z" fill="black"/>
<path d="M67.4858 19.6747C68.3334 19.6747 69.0205 18.9879 69.0205 18.1401V16.0939C69.0205 15.2461 68.3333 14.5593 67.4858 14.5593C66.6384 14.5593 65.9511 15.2461 65.9511 16.0939V18.1403C65.9511 18.9879 66.6382 19.6747 67.4858 19.6747Z" fill="black"/>
<path d="M73.6246 19.6747C74.4722 19.6747 75.1593 18.9879 75.1593 18.1401V16.0939C75.1593 15.2461 74.4721 14.5593 73.6246 14.5593C72.7772 14.5593 72.09 15.2461 72.09 16.0939V18.1403C72.09 18.9879 72.777 19.6747 73.6246 19.6747Z" fill="black"/>
<path d="M61.347 29.906C62.1946 29.906 62.8816 29.2192 62.8816 28.3714V26.3251C62.8816 25.4772 62.1944 24.7904 61.347 24.7904C60.4995 24.7904 59.8123 25.4772 59.8123 26.3251V28.3714C59.8123 29.2192 60.4993 29.906 61.347 29.906Z" fill="black"/>
<path d="M67.4858 29.906C68.3334 29.906 69.0205 29.2192 69.0205 28.3714V26.3251C69.0205 25.4772 68.3333 24.7904 67.4858 24.7904C66.6384 24.7904 65.9511 25.4772 65.9511 26.3251V28.3714C65.9511 29.2192 66.6382 29.906 67.4858 29.906Z" fill="black"/>
<path d="M73.6246 29.906C74.4722 29.906 75.1593 29.2192 75.1593 28.3714V26.3251C75.1593 25.4772 74.4721 24.7904 73.6246 24.7904C72.7772 24.7904 72.09 25.4772 72.09 26.3251V28.3714C72.09 29.2192 72.777 29.906 73.6246 29.906Z" fill="black"/>
<path d="M61.347 40.1375C62.1946 40.1375 62.8816 39.4507 62.8816 38.6029V36.5565C62.8816 35.7087 62.1944 35.0219 61.347 35.0219C60.4995 35.0219 59.8123 35.7087 59.8123 36.5565V38.6029C59.8123 39.4505 60.4993 40.1375 61.347 40.1375Z" fill="black"/>
<path d="M67.4858 40.1375C68.3334 40.1375 69.0205 39.4507 69.0205 38.6029V36.5565C69.0205 35.7087 68.3333 35.0219 67.4858 35.0219C66.6384 35.0219 65.9511 35.7087 65.9511 36.5565V38.6029C65.9511 39.4505 66.6382 40.1375 67.4858 40.1375Z" fill="black"/>
<path d="M73.6246 40.1375C74.4722 40.1375 75.1593 39.4507 75.1593 38.6029V36.5565C75.1593 35.7087 74.4721 35.0219 73.6246 35.0219C72.7772 35.0219 72.09 35.7087 72.09 36.5565V38.6029C72.09 39.4505 72.777 40.1375 73.6246 40.1375Z" fill="black"/>
<path d="M18.3754 44.23C19.223 44.23 19.9101 43.5432 19.9101 42.6954V40.649C19.9101 39.8012 19.2228 39.1144 18.3754 39.1144C17.5279 39.1144 16.8407 39.8012 16.8407 40.649V42.6954C16.8407 43.543 17.5279 44.23 18.3754 44.23Z" fill="black"/>
<path d="M24.5142 44.23C25.3618 44.23 26.0489 43.5432 26.0489 42.6954V40.649C26.0489 39.8012 25.3617 39.1144 24.5142 39.1144C23.6668 39.1144 22.9796 39.8012 22.9796 40.649V42.6954C22.9796 43.543 23.6666 44.23 24.5142 44.23Z" fill="black"/>
<path d="M30.653 44.23C31.5007 44.23 32.1877 43.5432 32.1877 42.6954V40.649C32.1877 39.8012 31.5005 39.1144 30.653 39.1144C29.8056 39.1144 29.1184 39.8012 29.1184 40.649V42.6954C29.1184 43.543 29.8054 44.23 30.653 44.23Z" fill="black"/>
<path d="M18.3754 54.4614C19.223 54.4614 19.9101 53.7745 19.9101 52.9267V50.8804C19.9101 50.0326 19.2228 49.3457 18.3754 49.3457C17.5279 49.3457 16.8407 50.0326 16.8407 50.8804V52.9267C16.8407 53.7743 17.5279 54.4614 18.3754 54.4614Z" fill="black"/>
<path d="M24.5142 54.4614C25.3618 54.4614 26.0489 53.7745 26.0489 52.9267V50.8804C26.0489 50.0326 25.3617 49.3457 24.5142 49.3457C23.6668 49.3457 22.9796 50.0326 22.9796 50.8804V52.9267C22.9796 53.7743 23.6666 54.4614 24.5142 54.4614Z" fill="black"/>
<path d="M30.653 54.4614C31.5007 54.4614 32.1877 53.7745 32.1877 52.9267V50.8804C32.1877 50.0326 31.5005 49.3457 30.653 49.3457C29.8056 49.3457 29.1184 50.0326 29.1184 50.8804V52.9267C29.1184 53.7743 29.8054 54.4614 30.653 54.4614Z" fill="black"/>
<path d="M18.3754 64.6927C19.223 64.6927 19.9101 64.0058 19.9101 63.158V61.1117C19.9101 60.2639 19.2228 59.577 18.3754 59.577C17.5279 59.577 16.8407 60.2639 16.8407 61.1117V63.158C16.8407 64.0058 17.5279 64.6927 18.3754 64.6927Z" fill="black"/>
<path d="M24.5142 64.6927C25.3618 64.6927 26.0489 64.0058 26.0489 63.158V61.1117C26.0489 60.2639 25.3617 59.577 24.5142 59.577C23.6668 59.577 22.9796 60.2639 22.9796 61.1117V63.158C22.9796 64.0058 23.6666 64.6927 24.5142 64.6927Z" fill="black"/>
<path d="M30.653 64.6927C31.5007 64.6927 32.1877 64.0058 32.1877 63.158V61.1117C32.1877 60.2639 31.5005 59.577 30.653 59.577C29.8056 59.577 29.1184 60.2639 29.1184 61.1117V63.158C29.1184 64.0058 29.8054 64.6927 30.653 64.6927Z" fill="black"/>
<path d="M18.3754 74.924C19.223 74.924 19.9101 74.2371 19.9101 73.3893V71.343C19.9101 70.4952 19.2228 69.8083 18.3754 69.8083C17.5279 69.8083 16.8407 70.4952 16.8407 71.343V73.3893C16.8407 74.2371 17.5279 74.924 18.3754 74.924Z" fill="black"/>
<path d="M24.5142 74.924C25.3618 74.924 26.0489 74.2371 26.0489 73.3893V71.343C26.0489 70.4952 25.3617 69.8083 24.5142 69.8083C23.6668 69.8083 22.9796 70.4952 22.9796 71.343V73.3893C22.9796 74.2371 23.6666 74.924 24.5142 74.924Z" fill="black"/>
<path d="M30.653 74.924C31.5007 74.924 32.1877 74.2371 32.1877 73.3893V71.343C32.1877 70.4952 31.5005 69.8083 30.653 69.8083C29.8056 69.8083 29.1184 70.4952 29.1184 71.343V73.3893C29.1184 74.2371 29.8054 74.924 30.653 74.924Z" fill="black"/>
<path d="M73.6246 50.3689C74.4722 50.3689 75.1593 49.682 75.1593 48.8342V46.7879C75.1593 45.9401 74.4721 45.2532 73.6246 45.2532C72.7772 45.2532 72.09 45.9401 72.09 46.7879V48.8342C72.09 49.6818 72.777 50.3689 73.6246 50.3689Z" fill="black"/>
<path d="M73.6246 60.6002C74.4722 60.6002 75.1593 59.9133 75.1593 59.0655V57.0192C75.1593 56.1714 74.4721 55.4845 73.6246 55.4845C72.7772 55.4845 72.09 56.1714 72.09 57.0192V59.0655C72.09 59.9131 72.777 60.6002 73.6246 60.6002Z" fill="black"/>
<path d="M73.6246 70.8315C74.4722 70.8315 75.1593 70.1446 75.1593 69.2968V67.2505C75.1593 66.4027 74.4721 65.7158 73.6246 65.7158C72.7772 65.7158 72.09 66.4027 72.09 67.2505V69.2968C72.09 70.1445 72.777 70.8315 73.6246 70.8315Z" fill="black"/>
<path d="M73.6246 81.0628C74.4722 81.0628 75.1593 80.3759 75.1593 79.5281V77.4818C75.1593 76.634 74.4721 75.9471 73.6246 75.9471C72.7772 75.9471 72.09 76.634 72.09 77.4818V79.5281C72.09 80.3758 72.777 81.0628 73.6246 81.0628Z" fill="black"/>
<path d="M46.5115 24.2789C46.5115 23.4311 45.8243 22.7442 44.9768 22.7442H32.6992C31.8516 22.7442 31.1645 23.4311 31.1645 24.2789C31.1645 25.1267 31.8517 25.8136 32.6992 25.8136H44.9768C45.8245 25.8136 46.5115 25.1267 46.5115 24.2789Z" fill="black"/>
</g>
<defs>
<clipPath id="clip0">
<rect width="91.0588" height="91.0588" fill="white" transform="translate(0.470589 0.235291)"/>
</clipPath>
</defs>
</svg>
