<svg width="17" height="17" viewBox="0 0 17 17" fill="none" xmlns="http://www.w3.org/2000/svg">
<path d="M8.5 0C3.80558 0 0 3.80558 0 8.5C0 13.1944 3.80558 17 8.5 17C13.1944 17 17 13.1944 17 8.5C16.994 3.80809 13.1919 0.00601673 8.5 0ZM8.86465 16.2525V14.7574C8.86465 14.556 8.70138 14.3928 8.5 14.3928C8.29862 14.3928 8.13535 14.556 8.13535 14.7574V16.2525C4.13691 16.0616 0.938428 12.8631 0.747533 8.86465H2.2426C2.44398 8.86465 2.60725 8.70138 2.60725 8.5C2.60725 8.29862 2.44398 8.13535 2.2426 8.13535H0.747533C0.938428 4.13691 4.13691 0.938428 8.13535 0.747533V2.2426C8.13535 2.44398 8.29862 2.60725 8.5 2.60725C8.70138 2.60725 8.86465 2.44398 8.86465 2.2426V0.747533C12.8631 0.938428 16.0616 4.13691 16.2525 8.13535H14.7574C14.556 8.13535 14.3928 8.29862 14.3928 8.5C14.3928 8.70138 14.556 8.86465 14.7574 8.86465H14.761H16.2561C16.0651 12.8644 12.8645 16.0634 8.86465 16.2525Z" fill="#005FA3"/>
<path d="M12.347 11.8914L8.86456 8.35062V4.67129C8.86456 4.46991 8.70128 4.30664 8.4999 4.30664C8.29853 4.30664 8.13525 4.46991 8.13525 4.67129V8.50012C8.13566 8.5958 8.17363 8.68746 8.241 8.75538L11.8255 12.4019C11.9665 12.5459 12.1975 12.5483 12.3415 12.4074C12.4855 12.2664 12.488 12.0354 12.347 11.8914Z" fill="#005FA3"/>
</svg>
