<svg width="90" height="104" viewBox="0 0 90 104" fill="none" xmlns="http://www.w3.org/2000/svg">
<path d="M30.3755 50.6336C30.3755 49.3199 30.7916 48.4659 31.6455 48.0718C32.4995 47.6777 33.66 47.5025 35.1927 47.5025H54.3519C56.1912 47.5025 57.5268 47.7871 58.3589 48.3564C59.1909 48.9257 59.5851 49.8892 59.5851 51.2029C59.5851 52.0131 59.1034 53.0641 58.1399 54.3998C57.1765 55.7136 56.0598 57.1806 54.8336 58.779C53.5855 60.3775 52.3155 62.37 51.0018 64.7348C49.688 67.1215 48.4837 70.0118 47.3889 73.4495C46.9291 74.9603 46.6006 76.2084 46.4036 77.2156C46.2065 78.201 46.0094 79.5147 45.7686 81.0913C45.5277 82.6897 45.3306 83.894 45.1555 84.7479C44.7613 86.6967 44.192 88.0543 43.4476 88.8206C42.7031 89.587 41.7178 89.9592 40.4916 89.9592C39.3311 89.9592 38.3895 89.5432 37.667 88.7331C36.9663 87.9229 36.5941 86.7186 36.5941 85.1202C36.5941 83.894 36.8568 82.2299 37.3604 80.1059C37.8859 78.0039 38.718 75.4639 39.9004 72.5299C41.0609 69.5958 42.5279 66.5741 44.2796 63.4648C46.0313 60.3775 48.1115 57.2901 50.5419 54.2246H35.1489C33.5286 54.2246 32.3462 53.94 31.536 53.3488C30.7697 52.8014 30.3755 51.8817 30.3755 50.6336ZM88.291 16.6945V38.6126C88.291 38.6783 88.2691 38.744 88.2691 38.8097V95.7617C88.2691 99.3089 85.3788 102.199 81.8316 102.199H8.10709C4.5599 102.199 1.64771 99.3089 1.64771 95.7617V28.19C1.64771 28.0805 1.6696 27.993 1.6696 27.9054V16.6945C1.6696 15.3369 3.4213 14.2202 5.61092 14.2202H12.6396V9.60014C12.6615 5.52744 15.9678 2.19922 20.0624 2.19922C24.157 2.19922 27.4633 5.52744 27.4633 9.60014V14.2202H39.0683V9.60014C39.0683 5.50555 42.3966 2.19922 46.4692 2.19922C50.5638 2.19922 53.8702 5.52744 53.8702 9.60014V14.2202H64.446V9.60014C64.446 5.50555 67.7743 2.19922 71.847 2.19922C75.9416 2.19922 79.2479 5.52744 79.2479 9.60014V14.2202H84.3059C86.5174 14.2202 88.291 15.3369 88.291 16.6945ZM68.1465 14.2202H75.5912V9.60014C75.5912 7.54189 73.9271 5.87778 71.8689 5.87778C69.8106 5.87778 68.1465 7.54189 68.1465 9.60014V14.2202ZM42.7688 14.2202H50.2135V9.60014C50.2135 7.54189 48.5494 5.87778 46.4911 5.87778C44.4329 5.87778 42.7688 7.54189 42.7688 9.60014V14.2202ZM16.3401 14.2202H23.7848V9.60014C23.7848 7.54189 22.1207 5.87778 20.0624 5.87778C18.0042 5.87778 16.3401 7.54189 16.3401 9.60014V14.2202ZM82.7294 41.0869H7.18745V95.7398C7.18745 96.2435 7.60347 96.6595 8.10709 96.6595H81.8097C82.3134 96.6595 82.7294 96.2435 82.7294 95.7398V41.0869Z" stroke="black" stroke-width="3" stroke-miterlimit="10"/>
</svg>
