<?xml version="1.0" encoding="utf-8"?>
<!-- Generator: Adobe Illustrator 21.0.1, SVG Export Plug-In . SVG Version: 6.00 Build 0)  -->
<svg version="1.1" id="Слой_1" xmlns="http://www.w3.org/2000/svg" xmlns:xlink="http://www.w3.org/1999/xlink" x="0px" y="0px"
	 viewBox="0 0 512 512" style="enable-background:new 0 0 512 512;" xml:space="preserve">
<style type="text/css">
	.st0{fill:#434343;}
</style>
<path class="st0" d="M504,57H8c-4.4,0-8-3.6-8-8s3.6-8,8-8h496c4.4,0,8,3.6,8,8S508.4,57,504,57z"/>
<path class="st0" d="M504,33H8c-4.4,0-8-3.6-8-8s3.6-8,8-8h496c4.4,0,8,3.6,8,8S508.4,33,504,33z"/>
<path class="st0" d="M208,241c-4.4,0-8-3.6-8-8V73c0-4.4,3.6-8,8-8c4.4,0,8,3.6,8,8v160C216,237.5,212.4,241,208,241z"/>
<path class="st0" d="M80,369c-4.4,0-8-3.6-8-8c0-4.4,3.6-8,8-8c66.2,0,120-53.8,120-120c0-4.4,3.6-8,8-8c4.4,0,8,3.6,8,8
	C216,308,155,369,80,369z"/>
<path class="st0" d="M80,369c-4.4,0-8-3.6-8-8c0-4.4,3.6-8,8-8c66.2,0,120-53.8,120-120c0-4.4,3.6-8,8-8c4.4,0,8,3.6,8,8
	C216,308,155,369,80,369z"/>
<path class="st0" d="M15.9,369c-4.4,0-8-3.6-8-8c0-4.4,3.6-8,8-8c30.9,0,56-25.1,56-56c0-4.4,3.6-8,8-8c4.4,0,8,3.6,8,8
	C88,336.7,55.6,369,15.9,369z"/>
<path class="st0" d="M48,369c-4.4,0-8-3.6-8-8c0-4.4,3.6-8,8-8c48.6,0,88.1-39.5,88.1-88.1c0-4.4,3.6-8,8-8c4.4,0,8,3.6,8,8
	C152,322.4,105.4,369,48,369z"/>
<path class="st0" d="M143.9,273c-4.4,0-8-3.6-8-8V73c0-4.4,3.6-8,8-8c4.4,0,8,3.6,8,8v192C151.9,269.4,148.3,273,143.9,273z"/>
<path class="st0" d="M79.8,305c-4.4,0-8-3.6-8-8V73c0-4.4,3.6-8,8-8s8,3.6,8,8v224C87.8,301.4,84.3,305,79.8,305z"/>
<path class="st0" d="M208,81H16c-4.4,0-8-3.6-8-8c0-4.4,3.6-8,8-8h192c4.4,0,8,3.6,8,8C216,77.4,212.4,81,208,81z"/>
<path class="st0" d="M16,497c-4.4,0-8-3.6-8-8V73c0-4.4,3.6-8,8-8s8,3.6,8,8v416C24,493.4,20.4,497,16,497z"/>
<path class="st0" d="M96,369H16c-4.4,0-8-3.6-8-8c0-4.4,3.6-8,8-8h80c4.4,0,8,3.6,8,8C104,365.5,100.4,369,96,369z"/>
<path class="st0" d="M55.8,409c-4.4,0-8-3.6-8-8c0-17.6-14.3-31.9-31.9-31.9c-4.4,0-8-3.6-8-8c0-4.4,3.6-8,8-8
	c26.4,0,47.9,21.5,47.9,47.9C63.8,405.4,60.3,409,55.8,409z"/>
<path class="st0" d="M55.9,497c-4.4,0-8-3.6-8-8v-88c0-4.4,3.6-8,8-8c4.4,0,8,3.6,8,8v88C63.9,493.4,60.4,497,55.9,497z"/>
<path class="st0" d="M95.9,409c-4.4,0-8-3.6-8-8c0-17.6-14.3-31.9-31.9-31.9c-4.4,0-8-3.6-8-8c0-4.4,3.6-8,8-8
	c26.4,0,47.9,21.5,47.9,47.9C103.9,405.4,100.3,409,95.9,409z"/>
<path class="st0" d="M96,497c-4.4,0-8-3.6-8-8v-88c0-4.4,3.6-8,8-8c4.4,0,8,3.6,8,8v88C104,493.4,100.4,497,96,497z"/>
<path class="st0" d="M135.9,409c-4.4,0-8-3.6-8-8c0-17.6-14.3-31.9-31.9-31.9c-4.4,0-8-3.6-8-8c0-4.4,3.6-8,8-8
	c26.4,0,47.9,21.5,47.9,47.9C143.9,405.4,140.3,409,135.9,409z"/>
<path class="st0" d="M136,497c-4.4,0-8-3.6-8-8v-88c0-4.4,3.6-8,8-8c4.4,0,8,3.6,8,8v88C144,493.4,140.4,497,136,497z"/>
<path class="st0" d="M136,497H16c-4.4,0-8-3.6-8-8c0-4.4,3.6-8,8-8h120c4.4,0,8,3.6,8,8C144,493.4,140.4,497,136,497z"/>
<path class="st0" d="M16,65c-4.4,0-8-3.6-8-8v-8c0-4.4,3.6-8,8-8s8,3.6,8,8v8C24,61.4,20.4,65,16,65z"/>
<path class="st0" d="M80,65c-4.4,0-8-3.6-8-8v-8c0-4.4,3.6-8,8-8c4.4,0,8,3.6,8,8v8C88,61.4,84.4,65,80,65z"/>
<path class="st0" d="M143.9,65c-4.4,0-8-3.6-8-8v-8c0-4.4,3.6-8,8-8c4.4,0,8,3.6,8,8v8C151.9,61.4,148.3,65,143.9,65z"/>
<path class="st0" d="M207.8,65c-4.4,0-8-3.6-8-8v-8c0-4.4,3.6-8,8-8c4.4,0,8,3.6,8,8v8C215.8,61.4,212.3,65,207.8,65z"/>
<path class="st0" d="M304,241c-4.4,0-8-3.6-8-8V73c0-4.4,3.6-8,8-8c4.4,0,8,3.6,8,8v160C312,237.5,308.4,241,304,241z"/>
<path class="st0" d="M432,369c-75,0-136-61-136-136c0-4.4,3.6-8,8-8c4.4,0,8,3.6,8,8c0,66.2,53.8,120,120,120c4.4,0,8,3.6,8,8
	C440,365.5,436.4,369,432,369z"/>
<path class="st0" d="M432,369c-75,0-136-61-136-136c0-4.4,3.6-8,8-8c4.4,0,8,3.6,8,8c0,66.2,53.8,120,120,120c4.4,0,8,3.6,8,8
	C440,365.5,436.4,369,432,369z"/>
<path class="st0" d="M496,369c-39.7,0-72-32.3-72-72c0-4.4,3.6-8,8-8c4.4,0,8,3.6,8,8c0,30.9,25.1,56,56,56c4.4,0,8,3.6,8,8
	C504,365.5,500.5,369,496,369z"/>
<path class="st0" d="M464,369c-57.4,0-104.1-46.7-104.1-104.1c0-4.4,3.6-8,8-8c4.4,0,8,3.6,8,8c0,48.6,39.5,88.1,88.1,88.1
	c4.4,0,8,3.6,8,8C472,365.5,468.4,369,464,369z"/>
<path class="st0" d="M368,273c-4.4,0-8-3.6-8-8V73c0-4.4,3.6-8,8-8c4.4,0,8,3.6,8,8v192C376,269.4,372.5,273,368,273z"/>
<path class="st0" d="M432.1,305c-4.4,0-8-3.6-8-8V73c0-4.4,3.6-8,8-8c4.4,0,8,3.6,8,8v224C440.1,301.4,436.6,305,432.1,305z"/>
<path class="st0" d="M496,81H304c-4.4,0-8-3.6-8-8c0-4.4,3.6-8,8-8h192c4.4,0,8,3.6,8,8C504,77.4,500.4,81,496,81z"/>
<path class="st0" d="M496,497c-4.4,0-8-3.6-8-8V73c0-4.4,3.6-8,8-8c4.4,0,8,3.6,8,8v416C504,493.4,500.4,497,496,497z"/>
<path class="st0" d="M496,369h-80c-4.4,0-8-3.6-8-8c0-4.4,3.6-8,8-8h80c4.4,0,8,3.6,8,8C504,365.5,500.4,369,496,369z"/>
<path class="st0" d="M456.1,409c-4.4,0-8-3.6-8-8c0-26.4,21.5-47.9,47.9-47.9c4.4,0,8,3.6,8,8c0,4.4-3.6,8-8,8
	c-17.6,0-31.9,14.3-31.9,31.9C464.1,405.4,460.5,409,456.1,409z"/>
<path class="st0" d="M456,497c-4.4,0-8-3.6-8-8v-88c0-4.4,3.6-8,8-8c4.4,0,8,3.6,8,8v88C464,493.4,460.4,497,456,497z"/>
<path class="st0" d="M416.1,409c-4.4,0-8-3.6-8-8c0-26.4,21.5-47.9,47.9-47.9c4.4,0,8,3.6,8,8c0,4.4-3.6,8-8,8
	c-17.6,0-31.9,14.3-31.9,31.9C424.1,405.4,420.5,409,416.1,409z"/>
<path class="st0" d="M416,497c-4.4,0-8-3.6-8-8v-88c0-4.4,3.6-8,8-8c4.4,0,8,3.6,8,8v88C424,493.4,420.4,497,416,497z"/>
<path class="st0" d="M376,409c-4.4,0-8-3.6-8-8c0-26.4,21.5-47.9,47.9-47.9c4.4,0,8,3.6,8,8c0,4.4-3.6,8-8,8
	c-17.6,0-31.9,14.3-31.9,31.9C384,405.4,380.5,409,376,409z"/>
<path class="st0" d="M375.9,497c-4.4,0-8-3.6-8-8v-88c0-4.4,3.6-8,8-8c4.4,0,8,3.6,8,8v88C383.9,493.4,380.4,497,375.9,497z"/>
<path class="st0" d="M496,497h-120c-4.4,0-8-3.6-8-8c0-4.4,3.6-8,8-8h120c4.4,0,8,3.6,8,8C504,493.4,500.4,497,496,497z"/>
<path class="st0" d="M496,65c-4.4,0-8-3.6-8-8v-8c0-4.4,3.6-8,8-8c4.4,0,8,3.6,8,8v8C504,61.4,500.4,65,496,65z"/>
<path class="st0" d="M432,65c-4.4,0-8-3.6-8-8v-8c0-4.4,3.6-8,8-8c4.4,0,8,3.6,8,8v8C440,61.4,436.4,65,432,65z"/>
<path class="st0" d="M368,65c-4.4,0-8-3.6-8-8v-8c0-4.4,3.6-8,8-8c4.4,0,8,3.6,8,8v8C376,61.4,372.5,65,368,65z"/>
<path class="st0" d="M304.1,65c-4.4,0-8-3.6-8-8v-8c0-4.4,3.6-8,8-8c4.4,0,8,3.6,8,8v8C312.1,61.4,308.5,65,304.1,65z"/>
</svg>
