<svg width="50" height="39" viewBox="0 0 50 39" fill="none" xmlns="http://www.w3.org/2000/svg">
<path d="M45.5397 0.944092H4.75679C2.36007 0.944092 0.407898 2.90902 0.407898 5.32141V34.5035C0.407898 36.9062 2.3504 38.8809 4.75679 38.8809H45.5397C47.9268 38.8809 49.8886 36.9257 49.8886 34.5035V5.32141C49.8886 2.91875 47.9461 0.944092 45.5397 0.944092ZM44.9405 3.8623L25.2449 23.6867L5.3753 3.8623H44.9405ZM3.30716 33.9004V5.91478L17.2719 19.8444L3.30716 33.9004ZM5.35597 35.9626L19.3304 21.8969L24.2302 26.78C24.8003 27.3442 25.7088 27.3442 26.279 26.78L31.0531 21.9747L44.9405 35.9626H5.35597ZM46.9894 33.9004L33.0922 19.9125L46.9894 5.92451V33.9004Z" fill="white"/>
</svg>
