<svg width="30" height="42" viewBox="0 0 30 42" fill="none" xmlns="http://www.w3.org/2000/svg">
<path d="M14.8535 21.1202C13.3005 21.1202 11.7394 20.5278 10.5546 19.343C8.185 16.9734 8.185 13.1148 10.5546 10.7452C11.6994 9.60044 13.2284 8.96802 14.8535 8.96802C16.4786 8.96802 18.0076 9.60044 19.1524 10.7452C21.522 13.1148 21.522 16.9734 19.1524 19.343C17.9676 20.5278 16.4066 21.1202 14.8535 21.1202ZM14.8535 11.3696C13.9089 11.3696 12.9722 11.7299 12.2518 12.4424C10.8188 13.8753 10.8188 16.2049 12.2518 17.6379C12.9482 18.3344 13.8688 18.7106 14.8535 18.7106C15.8382 18.7106 16.7588 18.3263 17.4553 17.6379C18.8882 16.2049 18.8882 13.8753 17.4553 12.4424C16.7348 11.7299 15.7901 11.3696 14.8535 11.3696Z" fill="white"/>
<path d="M14.8616 41.9103L13.933 40.8216C13.3886 40.1812 0.604004 25.0429 0.604004 15.1722C0.604004 7.31093 6.99232 0.922607 14.8536 0.922607C22.715 0.922607 29.1033 7.31093 29.1033 15.1722C29.1033 24.5626 16.3266 40.1491 15.7823 40.8056L14.8616 41.9103ZM14.8536 3.32423C8.32122 3.32423 3.00563 8.63983 3.00563 15.1722C3.00563 18.8387 5.19111 24.1543 9.33791 30.5346C11.4834 33.8409 13.6528 36.6508 14.8376 38.1318C16.0304 36.6107 18.2159 33.7128 20.3774 30.3425C24.5082 23.8901 26.6936 18.6466 26.6936 15.1802C26.6936 8.63983 21.378 3.32423 14.8536 3.32423Z" fill="white"/>
</svg>
