<svg width="97" height="101" viewBox="0 0 97 101" fill="none" xmlns="http://www.w3.org/2000/svg">
<path d="M92.0038 51.5078C91.5937 50.6875 91.5937 49.75 92.0038 48.9102L95.7343 41.2734C97.8046 37.0156 96.164 31.957 91.9843 29.75L84.4843 25.7656C83.6835 25.3359 83.1171 24.5742 82.9609 23.6758L81.496 15.3164C80.6757 10.668 76.3593 7.54297 71.6913 8.20703L63.2734 9.39844C62.3749 9.53516 61.4765 9.24219 60.8124 8.59766L54.6991 2.67969C51.3007 -0.601562 45.9687 -0.601562 42.5702 2.67969L36.457 8.57812C35.7929 9.22266 34.8945 9.51562 33.996 9.37891L25.5781 8.1875C20.8906 7.52344 16.5937 10.6484 15.7734 15.3164L14.3085 23.6758C14.1523 24.5742 13.5859 25.3359 12.7851 25.7656L5.28508 29.75C1.1054 31.957 -0.535228 37.0352 1.53508 41.2734L5.28508 48.9297C5.69524 49.75 5.69524 50.6875 5.28508 51.5273L1.55462 59.1641C-0.515697 63.4219 1.12493 68.4805 5.30462 70.6875L12.8046 74.6719C13.6054 75.1016 14.1718 75.8633 14.3281 76.7617L15.7929 85.1211C16.5351 89.3594 20.1679 92.3281 24.3476 92.3281C24.7577 92.3281 25.1679 92.3086 25.5976 92.2305L34.0156 91.0391C34.914 90.9023 35.8124 91.1953 36.4765 91.8398L42.5898 97.7383C44.289 99.3789 46.4765 100.199 48.6445 100.199C50.832 100.199 52.9999 99.3789 54.6991 97.7383L60.8124 91.8398C61.4765 91.1953 62.3749 90.9023 63.2734 91.0391L71.6913 92.2305C76.3788 92.8945 80.6757 89.7695 81.496 85.1016L82.9609 76.7422C83.1171 75.8438 83.6835 75.082 84.4843 74.6523L91.9843 70.668C96.164 68.4609 97.8046 63.3828 95.7343 59.1445L92.0038 51.5078ZM89.8359 66.4102C87.1601 67.7188 84.4843 69.0273 81.8085 70.3359C81.2421 70.6289 79.9921 71.3906 79.0741 72.8945C78.2538 74.2227 78.0976 75.4922 78.0585 76.1367C77.8241 78.8125 77.6093 81.4883 77.3749 84.1641C77.3749 84.3594 77.3163 85.9023 76.0077 86.8984C74.9921 87.6602 73.6054 87.7969 72.4335 87.2305C69.8163 86.8398 67.1991 86.4297 64.582 86.0391C63.7421 85.9219 62.3945 85.8438 60.832 86.2148C59.5624 86.5078 58.5859 87.0156 57.9218 87.4062C55.7538 89.5156 53.6054 91.625 51.4374 93.7148C51.3007 93.9883 50.6366 95.1797 49.2109 95.5898C48.3515 95.8438 47.6288 95.668 47.3359 95.5898C46.0859 95.2383 45.4413 94.3008 45.2851 94.0469C44.8749 93.4023 41.9062 88.793 38.4687 87.3867C37.2577 86.8984 35.7343 86.5273 35.7343 86.5273C35.1484 86.3906 33.6835 86.0391 32.3163 86.0195C28.8593 85.9609 27.1601 87.9531 24.1327 87.8945C23.9179 87.8945 22.9804 87.8555 21.9062 87.3867C21.5937 87.25 21.0468 86.957 20.539 86.3711C19.9726 85.707 19.7773 85.0234 19.6796 84.6719C19.289 81.6641 18.8788 78.6367 18.4882 75.6289C18.5273 75.2383 18.6445 73.8906 17.8046 72.5625C16.8671 71.0781 15.4218 70.6094 15.0702 70.5117C12.4531 69.1445 9.83587 67.7773 7.21868 66.4102C6.88665 66.1367 6.22258 65.5312 5.85149 64.5352C5.24602 62.8945 5.87102 61.4297 6.02727 61.1172C7.16008 58.4414 8.2929 55.7656 9.44524 53.0898C9.64055 52.3281 9.81633 51.2734 9.77727 50.0234C9.73821 49.0859 9.60149 48.2656 9.44524 47.6406C7.96087 44.7891 6.49602 41.957 5.01165 39.1055C4.93352 38.6758 4.75774 37.5039 5.34368 36.1953C6.0468 34.6328 7.37493 33.9688 7.72649 33.8125C10.0507 32.2695 12.3945 30.7461 14.7187 29.2031C15.3046 28.9297 16.2616 28.3633 17.1015 27.3281C18.2734 25.9023 18.5468 24.418 18.6445 23.7539C18.7421 22.1719 19.0741 18.3047 20.0116 15.2188C20.1874 14.6719 20.4609 13.832 21.2031 13.168C22.1406 12.3281 23.332 12.1914 24.4452 12.1523C27.7656 12.0352 31.1249 12.8359 32.9804 13.3437C33.4882 13.5 34.9726 13.9102 36.7304 13.3437C38.5077 12.7773 39.4843 11.5469 39.7968 11.1172C41.789 9.47656 43.7812 7.81641 45.7734 6.17578C46.1835 5.90234 47.0038 5.43359 48.1562 5.31641C49.6796 5.17969 50.8124 5.76562 51.2226 6C53.4491 8.10937 55.6562 10.2188 57.8827 12.3086C58.3124 12.7578 59.1523 13.5195 60.4413 14.0078C62.0234 14.5938 63.3906 14.457 64.0156 14.3398C66.7499 13.9492 69.4843 13.5391 72.1991 13.1484C72.8632 13.1484 74.1718 13.2852 75.2655 14.1641C76.1445 14.8867 76.5156 15.7656 76.8085 16.5469C77.7656 19.1641 78.2538 21.8984 78.5077 24.0469C78.5273 24.5352 78.6054 25.8438 79.5234 27.1133C80.3632 28.2852 81.457 28.8125 81.9062 28.9883C88.2929 31.5859 89.1913 33.4414 89.9335 34.6133C90.3827 35.3359 90.6366 36 90.7929 36.4883C90.7538 37.4258 90.6562 38.4609 90.4609 39.5547C89.8554 42.6797 88.6054 45.1016 87.5507 46.7227C87.3163 47.0742 86.6132 48.207 86.6913 49.7891C86.7695 51.1953 87.453 52.1719 87.707 52.5234C88.8984 55.3164 90.0898 58.0898 91.2812 60.8828C91.3984 61.0586 92.2382 62.3281 91.789 63.9492C91.4179 65.668 90.0116 66.332 89.8359 66.4102Z" fill="black"/>
<path d="M69.3085 28.9688C68.8007 28.4415 68.039 28.5196 67.8242 28.5587C66.9062 28.6563 66.3788 29.3594 66.2812 29.4962C44.9335 50.6876 29.4453 66.0782 28.0585 67.3673C27.8242 67.6016 26.9062 68.4415 26.9843 69.4376C27.0429 70.1016 27.5117 70.5509 27.5312 70.5704C27.9999 71.0001 28.5468 71.0391 28.7421 71.0587C29.7968 71.0977 30.4999 70.2579 30.5976 70.1407C43.3124 57.3868 56.0077 44.6329 68.7226 31.879C68.8593 31.7813 69.6406 31.1954 69.6796 30.2188C69.6992 30.0235 69.7382 29.418 69.3085 28.9688Z" fill="black"/>
<path d="M37.1015 24.2617C31.2617 24.2617 26.5351 29.0078 26.5351 34.8281C26.5351 40.6484 31.2812 45.3945 37.1015 45.3945C42.9218 45.3945 47.6679 40.6484 47.6679 34.8281C47.6679 29.0078 42.9413 24.2617 37.1015 24.2617ZM37.121 41.4883C33.3906 41.4297 30.5195 37.9531 30.871 34.3203C31.1835 31.0781 34.0546 28.3047 37.5117 28.4609C40.9882 28.6172 43.6445 31.625 43.6249 34.9648C43.6249 38.5 40.6757 41.5469 37.121 41.4883Z" fill="black"/>
<path d="M60.1874 55.0234C54.3476 55.0234 49.621 59.7695 49.621 65.5898C49.621 71.4297 54.3671 76.1562 60.1874 76.1562C66.0078 76.1562 70.7538 71.4102 70.7538 65.5898C70.7538 59.7695 66.0078 55.0234 60.1874 55.0234ZM60.1874 72.25C56.457 72.1914 53.5859 68.7148 53.9374 65.082C54.2499 61.8398 57.121 59.0664 60.5781 59.2227C64.0546 59.3789 66.7109 62.3867 66.6913 65.7266C66.6913 69.2617 63.7421 72.3086 60.1874 72.25Z" fill="black"/>
<path d="M60.1874 55.0234C54.3476 55.0234 49.621 59.7695 49.621 65.5898C49.621 71.4102 54.3671 76.1562 60.1874 76.1562C66.0273 76.1562 70.7538 71.4102 70.7538 65.5898C70.7538 59.7695 66.0078 55.0234 60.1874 55.0234ZM60.8124 72.2109C57.3945 72.4453 53.9374 69.9648 53.5273 66.4883C53.0585 62.6211 56.457 59.0078 60.4218 59.0664C64.4648 59.1445 67.6484 62.9922 67.0624 66.7422C66.5937 69.75 63.8007 72.0156 60.8124 72.2109Z" fill="black"/>
</svg>
