<svg width="42" height="41" viewBox="0 0 42 41" fill="none" xmlns="http://www.w3.org/2000/svg">
<path d="M40.7096 30.1709L35.6434 25.1047C34.2494 23.7107 31.9712 23.7107 30.5772 25.1047L28.2751 27.4068C27.2156 28.4662 25.495 28.4662 24.4356 27.4068L14.4385 17.4097C13.3791 16.3503 13.3791 14.6297 14.4385 13.5702C14.8129 13.1959 15.8724 12.1364 16.7406 11.2681C18.1346 9.87413 18.1506 7.61185 16.7406 6.19395L11.6744 1.14365C10.2804 -0.250358 8.00219 -0.250358 6.60818 1.14365C5.56467 2.1792 5.2301 2.51376 4.76012 2.97578C-0.282204 8.01811 -0.282204 16.2149 4.76012 21.2572L20.5881 37.0931C25.6384 42.1434 33.8192 42.1434 38.8695 37.0931L40.7096 35.253C42.1116 33.8431 42.1116 31.5729 40.7096 30.1709ZM8.28896 2.83239C8.75097 2.37038 9.51569 2.37038 9.9777 2.83239L15.0439 7.88269C15.5139 8.35267 15.5139 9.10942 15.0439 9.57143L14.1996 10.4158L7.45255 3.66083L8.28896 2.83239ZM22.2768 35.3964L6.44887 19.5605C2.54564 15.6573 2.33853 9.53957 5.78771 5.38144L12.5267 12.1205C10.7583 14.1278 10.83 17.1867 12.7498 19.1064L22.7389 29.1035C24.6586 31.0232 27.7095 31.0949 29.7248 29.3265L36.4639 36.0656C32.3137 39.5068 26.204 39.3236 22.2768 35.3964ZM39.0209 33.5563L38.1765 34.4007L31.4136 27.6378L32.2579 26.7934C32.7279 26.3314 33.4847 26.3234 33.9467 26.7934L39.0129 31.8596C39.4909 32.3296 39.4909 33.0864 39.0209 33.5563Z" fill="white"/>
</svg>
