<svg width="25" height="25" fill="none" xmlns="http://www.w3.org/2000/svg"><path d="M3.765 19.613H2.694A2.697 2.697 0 000 22.306v1.962c0 .404.328.732.732.732h3.16a2.184 2.184 0 01-.127-.732v-4.655zm5.23-3.923H7.924a2.697 2.697 0 00-2.694 2.694v5.884c0 .404.328.732.732.732h3.16a2.189 2.189 0 01-.127-.732V15.69zm15.861-8.333l-5.23-7.06a.733.733 0 00-1.177 0l-5.23 7.06a.733.733 0 00.588 1.168h1.883v15.743c0 .404.328.732.732.732h5.23a.732.732 0 00.733-.732V8.525h1.883a.733.733 0 00.588-1.168z" fill="#1FAB89"/><path d="M14.225 11.768h-1.071a2.697 2.697 0 00-2.694 2.693v9.807c0 .404.328.732.732.732h3.16a2.187 2.187 0 01-.127-.732v-12.5z" fill="#1FAB89"/></svg>