<svg width="23" height="25" fill="none" xmlns="http://www.w3.org/2000/svg"><path d="M18.839 4.403H17.37a.733.733 0 100 1.468h1.468a.733.733 0 100-1.468zm-7.416-2.53L10.689.405a.734.734 0 10-1.313.656l.734 1.468a.734.734 0 001.313-.656zM16.231.077a.736.736 0 00-.984.328l-.734 1.468a.734.734 0 101.313.656l.734-1.467a.734.734 0 00-.329-.985zM8.565 4.403H7.097a.733.733 0 100 1.468h1.468a.733.733 0 100-1.468zM4.161 11.79H1.226a.734.734 0 00-.734.734v11.742c0 .405.329.734.734.734H4.16a.734.734 0 00.734-.734V12.524a.734.734 0 00-.734-.734zm18.332 1.946c-.13-1.139-1.192-1.946-2.338-1.946h-5.722c.487-.87.748-3.333.736-4.339-.02-1.665-1.398-3-3.063-3H11.5a.733.733 0 00-.734.735c0 1.697-.66 4.76-1.907 6.006-.839.839-1.556 1.143-2.496 1.613v11.011C7.803 24.296 9.63 25 12.416 25h4.801c1.582 0 2.814-1.465 2.2-3.013a2.205 2.205 0 001.468-2.935c1.574-.43 2.153-2.372 1.061-3.592a2.197 2.197 0 00.547-1.724z" fill="#1FAB89"/></svg>