<svg width="20" height="15" fill="none" xmlns="http://www.w3.org/2000/svg"><path d="M18.811 4.953c.146-.121.363-.008.363.184v7.988c0 1.035-.805 1.875-1.797 1.875H1.797C.806 15 0 14.16 0 13.125V5.141c0-.196.213-.305.363-.184.84.68 1.951 1.543 5.771 4.438.79.601 2.124 1.867 3.453 1.859 1.337.012 2.697-1.281 3.457-1.86 3.82-2.894 4.928-3.761 5.767-4.44zM9.587 10c.87.016 2.12-1.14 2.75-1.617 4.969-3.762 5.347-4.09 6.493-5.028a.95.95 0 00.345-.738v-.742C19.174.84 18.368 0 17.377 0H1.797C.806 0 0 .84 0 1.875v.742c0 .29.127.559.345.738 1.146.934 1.524 1.266 6.493 5.028.63.476 1.88 1.633 2.75 1.617z" fill="#1FAB89"/></svg>