<svg width="15" height="15" fill="none" xmlns="http://www.w3.org/2000/svg"><path d="M13.97 10.6l-3.145-1.407a.648.648 0 00-.426-.036.671.671 0 00-.36.238l-1.394 1.776C6.46 10.096 4.7 8.26 3.668 5.98L5.37 4.526a.706.706 0 00.23-.376.73.73 0 00-.035-.444L4.216.425A.696.696 0 003.9.076a.654.654 0 00-.456-.058L.522.72a.671.671 0 00-.376.247.722.722 0 00-.146.438C0 8.921 5.84 15 13.033 15a.66.66 0 00.42-.153.708.708 0 00.237-.392l.674-3.047a.74.74 0 00-.057-.478.696.696 0 00-.336-.33z" fill="#1FAB89"/></svg>