<svg width="23" height="25" fill="none" xmlns="http://www.w3.org/2000/svg"><path d="M21.445 4.048L11.875.075c-.24-.1-.51-.1-.75 0l-9.57 3.973a.977.977 0 00-.602.902v4.83c0 6.651 4.02 12.634 10.178 15.148a.977.977 0 00.738 0A16.354 16.354 0 0022.047 9.78V4.95a.977.977 0 00-.602-.902zM20.094 9.78c0 5.654-3.32 10.86-8.594 13.183A14.405 14.405 0 012.906 9.78V5.602L11.5 2.034l8.594 3.568V9.78zm-9.673 3.292l4.197-4.197A.976.976 0 1116 10.255l-4.888 4.889a.977.977 0 01-1.38 0L7 12.414a.977.977 0 111.38-1.38l2.04 2.038z" fill="#1FAB89"/></svg>