<?xml version="1.0" encoding="utf-8"?>
<!-- Generator: Adobe Illustrator 21.0.1, SVG Export Plug-In . SVG Version: 6.00 Build 0)  -->
<svg version="1.1" id="Capa_1" xmlns="http://www.w3.org/2000/svg" xmlns:xlink="http://www.w3.org/1999/xlink" x="0px" y="0px"
	 viewBox="0 0 322.6 322.6" style="enable-background:new 0 0 322.6 322.6;" xml:space="preserve">
<style type="text/css">
	.st0{fill:none;stroke:#000000;stroke-width:0.75;stroke-miterlimit:10;}
	.st1{fill:none;}
	.st2{font-family:'Fribourg-Regular';}
	.st3{font-size:91.1102px;}
</style>
<g>
	<path class="st0" d="M254.3,172.5l-5.2,2.7c-0.2,0.1-0.3,0.4-0.3,0.6c0,0.3,0.1,0.5,0.3,0.6l5.2,2.7c4.2,2.2,7.5,6.8,9,12.6
		l1.9,7.2c0.1,0.3,0.3,0.5,0.5,0.5s0.4-0.2,0.5-0.5l1.9-7.2c1.5-5.9,4.8-10.5,9-12.6l5.2-2.7c0.2-0.1,0.3-0.4,0.3-0.6
		c0-0.3-0.1-0.5-0.3-0.6l-5.2-2.7c-4.2-2.2-7.5-6.8-9-12.6l-1.9-7.2c-0.1-0.3-0.3-0.5-0.5-0.5s-0.4,0.2-0.5,0.5l-1.9,7.2
		C261.8,165.8,258.5,170.4,254.3,172.5z"/>
	<path class="st0" d="M276.4,164.1l1.9-7c1.5-5.7,4.8-10.1,9-12.2l5.2-2.6c0.2-0.1,0.3-0.3,0.3-0.6s-0.1-0.5-0.3-0.6l-5.2-2.6
		c-4.2-2.1-7.5-6.5-9-12.2l-1.9-7c-0.1-0.3-0.3-0.4-0.5-0.4s-0.4,0.2-0.5,0.4l-1.9,7c-1.5,5.7-4.8,10.1-9,12.2l-5.2,2.6
		c-0.2,0.1-0.3,0.3-0.3,0.6s0.1,0.5,0.3,0.6l5.2,2.6c4.2,2.1,7.5,6.5,9,12.2l1.9,7c0.1,0.3,0.3,0.4,0.5,0.4S276.3,164.4,276.4,164.1
		z"/>
	<path class="st0" d="M251.7,164.6l1.1-4.1c0.9-3.3,2.9-5.9,5.4-7.1l3.1-1.5c0.1-0.1,0.2-0.2,0.2-0.4c0-0.2-0.1-0.3-0.2-0.4
		l-3.1-1.5c-2.5-1.2-4.5-3.8-5.4-7.1l-1.1-4.1c0-0.2-0.2-0.3-0.3-0.3s-0.2,0.1-0.3,0.3l-1.1,4.1c-0.9,3.3-2.9,5.9-5.4,7.1l-3.1,1.5
		c-0.1,0.1-0.2,0.2-0.2,0.4c0,0.2,0.1,0.3,0.2,0.4l3.1,1.5c2.5,1.2,4.5,3.8,5.4,7.1l1.1,4.1c0,0.2,0.2,0.3,0.3,0.3
		C251.5,164.9,251.6,164.8,251.7,164.6z"/>
	<rect x="11.9" y="138.1" class="st1" width="372.1" height="129.4"/>
	<text transform="matrix(1 0 0 1 11.8887 196.7883)" class="st2 st3">Morgan</text>
</g>
</svg>
