<svg width="35" height="30" viewBox="0 0 35 30" fill="none" xmlns="http://www.w3.org/2000/svg">
<g clip-path="url(#clip0)">
<path d="M32.9631 18.5254V7.7605L8.22207 3.93153V2.60812C8.22207 1.17002 6.85712 0 5.17933 0H2.0368V1.76722H5.17926C5.7202 1.76722 6.16031 2.14446 6.16031 2.60812V18.9257C6.16031 20.8095 7.94827 22.3421 10.146 22.3421H10.9711V24.3559C10.5499 24.1977 10.0851 24.1093 9.59657 24.1093C7.70182 24.1093 6.16031 25.4306 6.16031 27.0546C6.16031 28.6787 7.70182 30 9.59657 30C11.3754 30 12.8427 28.8355 13.0156 27.3492H13.0328V22.3421H30.9014V24.3559C30.4801 24.1977 30.0154 24.1093 29.5269 24.1093C27.6321 24.1093 26.0906 25.4306 26.0906 27.0546C26.0906 28.6787 27.6321 30 29.5269 30C31.3057 30 32.773 28.8355 32.9459 27.3492H32.9631V20.5748H10.146C9.08512 20.5748 8.22207 19.8351 8.22207 18.9257V18.2309L32.9631 18.5254ZM9.59657 28.2328C8.83867 28.2328 8.22207 27.7043 8.22207 27.0546C8.22207 26.405 8.83867 25.8765 9.59657 25.8765C10.3545 25.8765 10.9711 26.405 10.9711 27.0546C10.9711 27.7043 10.3545 28.2328 9.59657 28.2328ZM29.5269 28.2328C28.769 28.2328 28.1524 27.7043 28.1524 27.0546C28.1524 26.405 28.769 25.8765 29.5269 25.8765C30.2848 25.8765 30.9014 26.405 30.9014 27.0546C30.9014 27.7043 30.2848 28.2328 29.5269 28.2328ZM18.5308 16.5862L14.4073 16.5372V6.68456L18.5308 7.3227V16.5862ZM20.5926 7.6418L24.3725 8.22681V16.6558L20.5926 16.6108V7.6418ZM12.3456 16.5126L8.22207 16.4635V5.72732L12.3456 6.36546V16.5126ZM30.9014 16.7335L26.4342 16.6803V8.54585L30.9014 9.23719V16.7335Z" fill="black"/>
</g>
<defs>
<clipPath id="clip0">
<rect width="35" height="30" fill="white"/>
</clipPath>
</defs>
</svg>
