<svg width="92" height="26" viewBox="0 0 92 26" fill="none" xmlns="http://www.w3.org/2000/svg">
<path d="M12.384 4.368C11.6933 4.01333 10.9373 3.70533 10.116 3.444C9.29467 3.18267 8.50133 3.052 7.736 3.052C6.63467 3.052 5.75733 3.304 5.104 3.808C4.46933 4.312 4.152 4.99333 4.152 5.852C4.152 6.468 4.35733 6.99067 4.768 7.42C5.19733 7.84933 5.73867 8.232 6.392 8.568C7.064 8.88533 7.77333 9.184 8.52 9.464C9.36 9.78133 10.172 10.164 10.956 10.612C11.74 11.06 12.384 11.6667 12.888 12.432C13.4107 13.1787 13.672 14.1867 13.672 15.456C13.672 16.5387 13.4013 17.5187 12.86 18.396C12.3187 19.2547 11.5533 19.9453 10.564 20.468C9.57467 20.972 8.39867 21.224 7.036 21.224C5.692 21.224 4.44133 21.0093 3.284 20.58C2.14533 20.1507 1.17467 19.656 0.372 19.096L1.576 16.94C2.22933 17.444 3.032 17.8827 3.984 18.256C4.95467 18.6293 5.87867 18.816 6.756 18.816C7.40933 18.816 8.044 18.704 8.66 18.48C9.29467 18.256 9.81733 17.9013 10.228 17.416C10.6387 16.912 10.844 16.268 10.844 15.484C10.844 14.812 10.6573 14.2427 10.284 13.776C9.91067 13.3093 9.42533 12.9173 8.828 12.6C8.24933 12.264 7.61467 11.9653 6.924 11.704C6.28933 11.48 5.64533 11.2187 4.992 10.92C4.33867 10.6213 3.732 10.2667 3.172 9.856C2.63067 9.42667 2.192 8.904 1.856 8.288C1.52 7.672 1.352 6.92533 1.352 6.048C1.352 4.984 1.604 4.06 2.108 3.276C2.63067 2.47333 3.34 1.848 4.236 1.4C5.132 0.933332 6.168 0.681332 7.344 0.643998C8.632 0.643998 9.77067 0.802665 10.76 1.12C11.768 1.43733 12.6547 1.82 13.42 2.268L12.384 4.368ZM34.0849 19.264C33.6929 19.5813 33.1235 19.8893 32.3769 20.188C31.6302 20.4867 30.8275 20.7387 29.9689 20.944C29.1102 21.1307 28.2982 21.224 27.5329 21.224C25.3862 21.224 23.5195 20.7947 21.9329 19.936C20.3462 19.0587 19.1142 17.8733 18.2369 16.38C17.3782 14.868 16.9489 13.16 16.9489 11.256C16.9489 9.55733 17.2195 8.04533 17.7609 6.72C18.3209 5.39467 19.0769 4.27467 20.0289 3.36C20.9995 2.42667 22.1102 1.72667 23.3609 1.26C24.6115 0.774666 25.9369 0.532 27.3369 0.532C28.5129 0.532 29.6049 0.672 30.6129 0.951999C31.6209 1.232 32.5075 1.58667 33.2729 2.016L32.3769 4.508C31.9849 4.284 31.5089 4.07867 30.9489 3.892C30.4075 3.70533 29.8475 3.556 29.2689 3.444C28.6902 3.332 28.1582 3.276 27.6729 3.276C26.0862 3.276 24.6955 3.59333 23.5009 4.228C22.3062 4.86267 21.3822 5.75867 20.7289 6.916C20.0755 8.07333 19.7489 9.44533 19.7489 11.032C19.7489 12.5067 20.0755 13.8133 20.7289 14.952C21.3822 16.072 22.2969 16.9493 23.4729 17.584C24.6489 18.2 26.0209 18.508 27.5889 18.508C28.2609 18.508 28.9329 18.4427 29.6049 18.312C30.2769 18.1813 30.8462 17.976 31.3129 17.696V13.72H27.3089V11.088H34.0849V19.264ZM43.6596 17.332C43.6596 18.9747 43.3422 20.3653 42.7076 21.504C42.0916 22.6613 41.2422 23.548 40.1596 24.164C39.0769 24.7987 37.8356 25.1347 36.4356 25.172V22.54C37.7422 22.4653 38.8156 21.9987 39.6556 21.14C40.5142 20.3 40.9436 19.0027 40.9436 17.248V0.755999H43.6596V17.332ZM49.4901 0.755999H62.6501V3.36H52.2061V9.52H61.5301V12.124H52.2061V18.368H63.0421V21H49.4901V0.755999ZM66.0191 0.839999H69.1831L74.3911 15.568L77.9191 6.412L75.7631 0.839999H78.4511L84.0791 15.26L89.0631 0.839999H91.9751L83.9951 21.896L79.2631 9.828L74.0831 21.924L66.0191 0.839999Z" fill="url(#paint0_linear)"/>
<defs>
<linearGradient id="paint0_linear" x1="97.2253" y1="9.33334" x2="-7.74382" y2="9.03858" gradientUnits="userSpaceOnUse">
<stop stop-color="#986F2F"/>
<stop offset="1"/>
</linearGradient>
</defs>
</svg>
