<svg width="158" height="44" viewBox="0 0 158 44" fill="none" xmlns="http://www.w3.org/2000/svg">
<path d="M20.944 7.488C19.76 6.88 18.464 6.352 17.056 5.904C15.648 5.456 14.288 5.232 12.976 5.232C11.088 5.232 9.584 5.664 8.464 6.528C7.376 7.392 6.832 8.56 6.832 10.032C6.832 11.088 7.184 11.984 7.888 12.72C8.624 13.456 9.552 14.112 10.672 14.688C11.824 15.232 13.04 15.744 14.32 16.224C15.76 16.768 17.152 17.424 18.496 18.192C19.84 18.96 20.944 20 21.808 21.312C22.704 22.592 23.152 24.32 23.152 26.496C23.152 28.352 22.688 30.032 21.76 31.536C20.832 33.008 19.52 34.192 17.824 35.088C16.128 35.952 14.112 36.384 11.776 36.384C9.472 36.384 7.328 36.016 5.344 35.28C3.392 34.544 1.728 33.696 0.352 32.736L2.416 29.04C3.536 29.904 4.912 30.656 6.544 31.296C8.208 31.936 9.792 32.256 11.296 32.256C12.416 32.256 13.504 32.064 14.56 31.68C15.648 31.296 16.544 30.688 17.248 29.856C17.952 28.992 18.304 27.888 18.304 26.544C18.304 25.392 17.984 24.416 17.344 23.616C16.704 22.816 15.872 22.144 14.848 21.6C13.856 21.024 12.768 20.512 11.584 20.064C10.496 19.68 9.392 19.232 8.272 18.72C7.152 18.208 6.112 17.6 5.152 16.896C4.224 16.16 3.472 15.264 2.896 14.208C2.32 13.152 2.032 11.872 2.032 10.368C2.032 8.544 2.464 6.96 3.328 5.616C4.224 4.24 5.44 3.168 6.976 2.4C8.512 1.6 10.288 1.168 12.304 1.104C14.512 1.104 16.464 1.376 18.16 1.92C19.888 2.464 21.408 3.12 22.72 3.888L20.944 7.488ZM58.1455 33.024C57.4735 33.568 56.4975 34.096 55.2175 34.608C53.9375 35.12 52.5615 35.552 51.0895 35.904C49.6175 36.224 48.2255 36.384 46.9135 36.384C43.2335 36.384 40.0335 35.648 37.3135 34.176C34.5935 32.672 32.4815 30.64 30.9775 28.08C29.5055 25.488 28.7695 22.56 28.7695 19.296C28.7695 16.384 29.2335 13.792 30.1615 11.52C31.1215 9.248 32.4175 7.328 34.0495 5.76C35.7135 4.16 37.6175 2.96 39.7615 2.16C41.9055 1.328 44.1775 0.912 46.5775 0.912C48.5935 0.912 50.4655 1.152 52.1935 1.632C53.9215 2.112 55.4415 2.72 56.7535 3.456L55.2175 7.728C54.5455 7.344 53.7295 6.992 52.7695 6.672C51.8415 6.352 50.8815 6.096 49.8895 5.904C48.8975 5.712 47.9855 5.616 47.1535 5.616C44.4335 5.616 42.0495 6.16 40.0015 7.248C37.9535 8.336 36.3695 9.872 35.2495 11.856C34.1295 13.84 33.5695 16.192 33.5695 18.912C33.5695 21.44 34.1295 23.68 35.2495 25.632C36.3695 27.552 37.9375 29.056 39.9535 30.144C41.9695 31.2 44.3215 31.728 47.0095 31.728C48.1615 31.728 49.3135 31.616 50.4655 31.392C51.6175 31.168 52.5935 30.816 53.3935 30.336V23.52H46.5295V19.008H58.1455V33.024ZM74.5593 29.712C74.5593 32.528 74.0153 34.912 72.9273 36.864C71.8713 38.848 70.4153 40.368 68.5593 41.424C66.7033 42.512 64.5753 43.088 62.1753 43.152V38.64C64.4153 38.512 66.2553 37.712 67.6953 36.24C69.1673 34.8 69.9033 32.576 69.9033 29.568V1.296H74.5593V29.712ZM84.5545 1.296H107.115V5.76H89.2105V16.32H105.195V20.784H89.2105V31.488H107.786V36H84.5545V1.296ZM112.89 1.44H118.314L127.242 26.688L133.29 10.992L129.594 1.44H134.202L143.85 26.16L152.394 1.44H157.386L143.706 37.536L135.594 16.848L126.714 37.584L112.89 1.44Z" fill="url(#paint0_linear)"/>
<defs>
<linearGradient id="paint0_linear" x1="165.5" y1="16" x2="-13.5" y2="15.5" gradientUnits="userSpaceOnUse">
<stop stop-color="#986F2F"/>
<stop offset="1"/>
</linearGradient>
</defs>
</svg>
