<svg width="32" height="27" viewBox="0 0 32 27" fill="none" xmlns="http://www.w3.org/2000/svg">
<path d="M28.7603 0.0301514H2.97523C1.33459 0.0301514 0 1.50541 0 3.31898V23.0518C0 24.8654 1.33459 26.3407 2.97523 26.3407H28.7603C30.4009 26.3407 31.7355 24.8654 31.7355 23.0518V3.31898C31.7355 1.50541 30.4009 0.0301514 28.7603 0.0301514ZM28.7603 2.22268C28.8951 2.22268 29.0232 2.25358 29.1404 2.30755L15.8678 15.0236L2.59504 2.30755C2.71223 2.25366 2.84042 2.22268 2.97516 2.22268H28.7603ZM28.7603 24.1481H2.97523C2.42804 24.1481 1.98346 23.6567 1.98346 23.0518V4.62399L15.2179 17.3028C15.4048 17.4816 15.6363 17.5705 15.8678 17.5705C16.0992 17.5705 16.3307 17.4816 16.5176 17.3028L29.7521 4.62399V23.0518C29.752 23.6567 29.3075 24.1481 28.7603 24.1481Z" fill="#FFF9F9"/>
</svg>
