<svg width="27" height="37" viewBox="0 0 27 37" fill="none" xmlns="http://www.w3.org/2000/svg">
<path d="M13.5 0.221191C6.3707 0.221191 0.570831 6.17284 0.570831 13.4887C0.570831 15.8971 1.62342 18.4874 1.66753 18.5967C2.00749 19.4247 2.67828 20.7109 3.16199 21.4648L12.0268 35.2482C12.3896 35.8132 12.9265 36.1371 13.5 36.1371C14.0734 36.1371 14.6104 35.8132 14.9732 35.2489L23.8388 21.4648C24.3232 20.7109 24.9933 19.4247 25.3332 18.5967C25.3773 18.4882 26.4292 15.8979 26.4292 13.4887C26.4292 6.17284 20.6293 0.221191 13.5 0.221191ZM23.9308 17.9911C23.6273 18.7333 23.0029 19.9297 22.5687 20.6055L13.7031 34.3897C13.5281 34.6621 13.4726 34.6621 13.2977 34.3897L4.43209 20.6055C3.99782 19.9297 3.37342 18.7325 3.06996 17.9903C3.05703 17.9583 2.09191 15.574 2.09191 13.4887C2.09191 7.03366 7.20958 1.78207 13.5 1.78207C19.7904 1.78207 24.9081 7.03366 24.9081 13.4887C24.9081 15.5771 23.9407 17.9676 23.9308 17.9911Z" fill="white"/>
<path d="M13.5 6.46545C9.72545 6.46545 6.65515 9.61687 6.65515 13.4894C6.65515 17.362 9.72545 20.5134 13.5 20.5134C17.2746 20.5134 20.3449 17.362 20.3449 13.4894C20.3449 9.61687 17.2746 6.46545 13.5 6.46545ZM13.5 18.9525C10.5651 18.9525 8.17623 16.5019 8.17623 13.4894C8.17623 10.4769 10.5651 8.02634 13.5 8.02634C16.4349 8.02634 18.8238 10.4769 18.8238 13.4894C18.8238 16.5019 16.4349 18.9525 13.5 18.9525Z" fill="white"/>
</svg>
