<svg width="27" height="27" viewBox="0 0 27 27" fill="none" xmlns="http://www.w3.org/2000/svg">
<path d="M19.4049 27C18.5333 27 17.6691 26.8459 16.8241 26.5389C13.1013 25.1865 9.64575 22.9839 6.83089 20.1691C4.01603 17.3543 1.81339 13.8987 0.46107 10.1759C0.0265014 8.97956 -0.101744 7.74457 0.0800248 6.50515C0.250298 5.3442 0.7 4.21715 1.38057 3.24583C2.06414 2.27023 2.97546 1.45878 4.01598 0.899242C5.12557 0.302577 6.33668 0 7.61576 0C8.01357 0 8.35739 0.277952 8.44076 0.666904L9.76508 6.84707C9.82504 7.12692 9.73903 7.4181 9.5367 7.62049L7.27379 9.88334C9.4085 14.1275 12.8724 17.5914 17.1166 19.7261L19.3795 17.4632C19.5819 17.2609 19.8731 17.175 20.1529 17.2348L26.3331 18.5592C26.7221 18.6425 27 18.9863 27 19.3842C27 20.6632 26.6974 21.8744 26.1007 22.984C25.5412 24.0245 24.7297 24.9358 23.7541 25.6194C22.7828 26.2999 21.6558 26.7496 20.4948 26.9199C20.131 26.9733 19.7672 26.9999 19.4049 27V27ZM6.94163 1.72434C5.25445 1.91059 3.75695 2.79491 2.76253 4.2142C1.64428 5.81014 1.38352 7.7731 2.0471 9.59985C4.64703 16.757 10.243 22.353 17.4002 24.9529C19.2269 25.6165 21.1899 25.3558 22.7859 24.2375C24.2052 23.243 25.0895 21.7456 25.2758 20.0584L20.2482 18.9811L17.8849 21.3443C17.6334 21.5958 17.2514 21.6626 16.9296 21.5114C11.91 19.1532 7.84683 15.0901 5.48864 10.0705C5.33745 9.74866 5.40421 9.36656 5.65569 9.11513L8.01895 6.75189L6.94163 1.72434Z" fill="#986F2F"/>
</svg>
