<svg width="35" height="33" viewBox="0 0 35 33" fill="none" xmlns="http://www.w3.org/2000/svg">
<path d="M25.1548 32.0416C24.025 32.0416 22.9048 31.8613 21.8094 31.5022C16.9835 29.9203 12.5041 27.3438 8.85524 24.0512C5.20636 20.7586 2.35111 16.7164 0.598107 12.3617C0.0347808 10.9623 -0.131462 9.51765 0.104163 8.06785C0.324886 6.70984 0.907831 5.39148 1.79004 4.25528C2.67615 3.11408 3.85748 2.1649 5.2063 1.51038C6.64466 0.812434 8.2146 0.458496 9.87266 0.458496C10.3883 0.458496 10.834 0.783628 10.9421 1.2386L12.6588 8.46781C12.7365 8.79516 12.625 9.13577 12.3628 9.37251L9.42937 12.0195C12.1966 16.9841 16.6868 21.0359 22.1885 23.533L25.1218 20.886C25.3842 20.6493 25.7617 20.5488 26.1244 20.6188L34.1358 22.1679C34.64 22.2655 35.0003 22.6676 35.0003 23.133C35.0003 24.6292 34.608 26.0459 33.8345 27.3438C33.1092 28.561 32.0573 29.627 30.7926 30.4266C29.5336 31.2227 28.0726 31.7487 26.5676 31.9479C26.096 32.0104 25.6245 32.0415 25.1548 32.0416ZM8.99879 2.47554C6.81172 2.6934 4.87053 3.72783 3.58146 5.38803C2.13189 7.25487 1.79387 9.55102 2.65407 11.6879C6.02432 20.0599 13.2784 26.6057 22.5562 29.647C24.9241 30.4232 27.4687 30.1182 29.5375 28.8101C31.3774 27.6469 32.5237 25.8952 32.7651 23.9217L26.248 22.6615L23.1845 25.4259C22.8585 25.72 22.3632 25.7982 21.9461 25.6213C15.4392 22.8628 10.1722 18.11 7.11529 12.2384C6.91931 11.8619 7.00585 11.415 7.33184 11.1209L10.3953 8.35647L8.99879 2.47554Z" fill="white"/>
</svg>
