<?xml version="1.0" encoding="utf-8"?>
<!-- Generator: Adobe Illustrator 21.0.1, SVG Export Plug-In . SVG Version: 6.00 Build 0)  -->
<svg version="1.1" id="Слой_1" xmlns="http://www.w3.org/2000/svg" xmlns:xlink="http://www.w3.org/1999/xlink" x="0px" y="0px"
	 viewBox="0 0 72.4 107.4" style="enable-background:new 0 0 72.4 107.4;" xml:space="preserve">
<style type="text/css">
	.st0{display:none;fill:#DADADA;}
	.st1{fill:#FFFFFF;}
	.st2{fill:#FFFFFF;stroke:#000000;stroke-width:0.5;stroke-miterlimit:10;}
	.st3{display:none;}
	.st4{display:inline;}
</style>
<g>
	<rect x="-42.5" y="-7.7" class="st0" width="147.8" height="121"/>
	<path class="st1" d="M11.6,97.2c0-15.9,0.1-31.8,0.1-47.7c-2.2,0-4.4,0-6.5,0c0,17.8,0,35.6,0,53.4c20.8,0,41.7,0,62.5,0
		c0-17.8,0-35.6,0-53.4c-2.2,0-4.4,0-6.6,0c0,15.9,0.1,31.8,0.1,47.7c-4.6,0-9.3,0-13.9,0.1C47.1,89.1,47.1,81,47,73
		c-7,0-14.1,0-21.1,0c0,8,0.1,16.1,0.1,24.1C21.2,97.1,16.4,97.1,11.6,97.2z"/>
	<line class="st2" x1="36.4" y1="73" x2="36.4" y2="102.8"/>
	<circle cx="38.8" cy="88.7" r="0.8"/>
	<g>
		<g>
			<g>
				<path class="st1" d="M43.2,61.2c-1,0-1.4,0-2.4,0c-3.5-5.4-5.2-8-8.6-13.4c-0.2-0.3-0.4-0.7-0.5-1.1c0,0,0,0-0.1,0
					c0.1,0.4,0.1,1.1,0.1,2.3c0,4.9,0,7.3,0,12.1c-0.8,0-1.2,0-2,0c0-6.7,0-10.1,0-16.8c1,0,1.5,0,2.6,0c3.4,5.3,5,7.9,8.4,13.2
					c0.4,0.5,0.6,0.9,0.7,1.1c0,0,0,0,0,0c-0.1-0.5-0.1-1.3-0.1-2.5c0-4.7,0-7.1,0-11.8c0.8,0,1.2,0,2,0
					C43.2,51.2,43.2,54.5,43.2,61.2z"/>
			</g>
		</g>
		<g>
			<g>
				<path class="st1" d="M31.8,44.4c0,2.8,0,4.2,0,7.1c0,2.7-0.1,4.9-0.2,7.1c0,0,0,0,0.1,0c0.9-1.7,2-3.6,3.3-5.6
					c2.3-3.5,3.5-5.2,5.8-8.7c0.9,0,1.4,0,2.3,0c0,6.7,0,10.1,0,16.8c-0.9,0-1.3,0-2.2,0c0-2.9,0-4.3,0-7.2c0-2.7,0-4.7,0.2-6.8
					c0,0,0,0-0.1,0c-0.9,1.8-2.1,3.8-3.3,5.7c-2.3,3.3-3.4,5-5.6,8.4c-1,0-1.5,0-2.5,0c0-6.7,0-10.1,0-16.8
					C30.5,44.4,30.9,44.4,31.8,44.4z"/>
			</g>
		</g>
	</g>
</g>
<g class="st3">
	<g class="st4">
		<path class="st1" d="M4.9,47.5c0-4.1,0-6.2,0-10.3c9.6-8.1,19.2-16.2,28.8-24.3c1.1-0.9,1.8-1.5,2.2-1.7c0-0.1,0-0.1,0-0.2
			c-10.3,0-20.7,0-31,0c0-3,0-4.4,0-7.4c21,0,42,0,63,0c0,3,0,4.4,0,7.4c-9.9,0-19.7,0-29.6,0c0,0.1,0,0.1,0,0.2
			c0.6,0.4,1.4,1,2.2,1.7c9.2,7.9,18.3,15.7,27.5,23.6c0,3.7,0,5.5,0,9.2c-10.1-9-20.2-18-30.2-27C26.7,28.3,15.8,37.9,4.9,47.5z"/>
	</g>
</g>
<g>
	<g>
		<path class="st1" d="M5.1,46.8c0-3.5,0-5.3,0-8.8c10.5-9.6,21.1-19.2,31.6-28.8c-10.5,0-21.1,0-31.6,0c0-2.9,0-4.3,0-7.2
			c20.8,0,41.5,0,62.3,0c0,2.9,0,4.3,0,7.2c-10.1,0-20.1,0-30.2,0c10.1,9.4,20.1,18.7,30.2,28.1c0,3.3,0,5,0,8.3
			C57.4,36.4,47.3,27.2,37.2,18C26.5,27.6,15.8,37.2,5.1,46.8z"/>
	</g>
</g>
</svg>
